<svg class="rich-terminal" viewBox="0 0 1629 928.4" xmlns="http://www.w3.org/2000/svg">
    <!-- Generated with Rich https://www.textualize.io -->
    <style>

    @font-face {
        font-family: "Fira Code";
        src: local("FiraCode-Regular"),
                url("https://cdnjs.cloudflare.com/ajax/libs/firacode/6.2.0/woff2/FiraCode-Regular.woff2") format("woff2"),
                url("https://cdnjs.cloudflare.com/ajax/libs/firacode/6.2.0/woff/FiraCode-Regular.woff") format("woff");
        font-style: normal;
        font-weight: 400;
    }
    @font-face {
        font-family: "Fira Code";
        src: local("FiraCode-Bold"),
                url("https://cdnjs.cloudflare.com/ajax/libs/firacode/6.2.0/woff2/FiraCode-Bold.woff2") format("woff2"),
                url("https://cdnjs.cloudflare.com/ajax/libs/firacode/6.2.0/woff/FiraCode-Bold.woff") format("woff");
        font-style: bold;
        font-weight: 700;
    }

    .terminal-345388684-matrix {
        font-family: Fira Code, monospace;
        font-size: 20px;
        line-height: 24.4px;
        font-variant-east-asian: full-width;
    }

    .terminal-345388684-title {
        font-size: 18px;
        font-weight: bold;
        font-family: arial;
    }

    .terminal-345388684-r1 { fill: #c5c8c6 }
.terminal-345388684-r2 { fill: #fcfbf9 }
.terminal-345388684-r3 { fill: #efcec1 }
.terminal-345388684-r4 { fill: #96938c }
.terminal-345388684-r5 { fill: #d87757 }
.terminal-345388684-r6 { fill: #9e9e9e }
.terminal-345388684-r7 { fill: #9e9e9e;font-style: italic; }
.terminal-345388684-r8 { fill: #9e9e9e;font-weight: bold;font-style: italic; }
.terminal-345388684-r9 { fill: #fcfbf9;font-weight: bold }
.terminal-345388684-r10 { fill: #d97757;font-weight: bold }
.terminal-345388684-r11 { fill: #e3e3e3 }
.terminal-345388684-r12 { fill: #a5a5a4 }
    </style>

    <defs>
    <clipPath id="terminal-345388684-clip-terminal">
      <rect x="0" y="0" width="1609.3999999999999" height="877.4" />
    </clipPath>
    <clipPath id="terminal-345388684-line-0">
    <rect x="0" y="1.5" width="1610.4" height="24.65"/>
            </clipPath>
<clipPath id="terminal-345388684-line-1">
    <rect x="0" y="25.9" width="1610.4" height="24.65"/>
            </clipPath>
<clipPath id="terminal-345388684-line-2">
    <rect x="0" y="50.3" width="1610.4" height="24.65"/>
            </clipPath>
<clipPath id="terminal-345388684-line-3">
    <rect x="0" y="74.7" width="1610.4" height="24.65"/>
            </clipPath>
<clipPath id="terminal-345388684-line-4">
    <rect x="0" y="99.1" width="1610.4" height="24.65"/>
            </clipPath>
<clipPath id="terminal-345388684-line-5">
    <rect x="0" y="123.5" width="1610.4" height="24.65"/>
            </clipPath>
<clipPath id="terminal-345388684-line-6">
    <rect x="0" y="147.9" width="1610.4" height="24.65"/>
            </clipPath>
<clipPath id="terminal-345388684-line-7">
    <rect x="0" y="172.3" width="1610.4" height="24.65"/>
            </clipPath>
<clipPath id="terminal-345388684-line-8">
    <rect x="0" y="196.7" width="1610.4" height="24.65"/>
            </clipPath>
<clipPath id="terminal-345388684-line-9">
    <rect x="0" y="221.1" width="1610.4" height="24.65"/>
            </clipPath>
<clipPath id="terminal-345388684-line-10">
    <rect x="0" y="245.5" width="1610.4" height="24.65"/>
            </clipPath>
<clipPath id="terminal-345388684-line-11">
    <rect x="0" y="269.9" width="1610.4" height="24.65"/>
            </clipPath>
<clipPath id="terminal-345388684-line-12">
    <rect x="0" y="294.3" width="1610.4" height="24.65"/>
            </clipPath>
<clipPath id="terminal-345388684-line-13">
    <rect x="0" y="318.7" width="1610.4" height="24.65"/>
            </clipPath>
<clipPath id="terminal-345388684-line-14">
    <rect x="0" y="343.1" width="1610.4" height="24.65"/>
            </clipPath>
<clipPath id="terminal-345388684-line-15">
    <rect x="0" y="367.5" width="1610.4" height="24.65"/>
            </clipPath>
<clipPath id="terminal-345388684-line-16">
    <rect x="0" y="391.9" width="1610.4" height="24.65"/>
            </clipPath>
<clipPath id="terminal-345388684-line-17">
    <rect x="0" y="416.3" width="1610.4" height="24.65"/>
            </clipPath>
<clipPath id="terminal-345388684-line-18">
    <rect x="0" y="440.7" width="1610.4" height="24.65"/>
            </clipPath>
<clipPath id="terminal-345388684-line-19">
    <rect x="0" y="465.1" width="1610.4" height="24.65"/>
            </clipPath>
<clipPath id="terminal-345388684-line-20">
    <rect x="0" y="489.5" width="1610.4" height="24.65"/>
            </clipPath>
<clipPath id="terminal-345388684-line-21">
    <rect x="0" y="513.9" width="1610.4" height="24.65"/>
            </clipPath>
<clipPath id="terminal-345388684-line-22">
    <rect x="0" y="538.3" width="1610.4" height="24.65"/>
            </clipPath>
<clipPath id="terminal-345388684-line-23">
    <rect x="0" y="562.7" width="1610.4" height="24.65"/>
            </clipPath>
<clipPath id="terminal-345388684-line-24">
    <rect x="0" y="587.1" width="1610.4" height="24.65"/>
            </clipPath>
<clipPath id="terminal-345388684-line-25">
    <rect x="0" y="611.5" width="1610.4" height="24.65"/>
            </clipPath>
<clipPath id="terminal-345388684-line-26">
    <rect x="0" y="635.9" width="1610.4" height="24.65"/>
            </clipPath>
<clipPath id="terminal-345388684-line-27">
    <rect x="0" y="660.3" width="1610.4" height="24.65"/>
            </clipPath>
<clipPath id="terminal-345388684-line-28">
    <rect x="0" y="684.7" width="1610.4" height="24.65"/>
            </clipPath>
<clipPath id="terminal-345388684-line-29">
    <rect x="0" y="709.1" width="1610.4" height="24.65"/>
            </clipPath>
<clipPath id="terminal-345388684-line-30">
    <rect x="0" y="733.5" width="1610.4" height="24.65"/>
            </clipPath>
<clipPath id="terminal-345388684-line-31">
    <rect x="0" y="757.9" width="1610.4" height="24.65"/>
            </clipPath>
<clipPath id="terminal-345388684-line-32">
    <rect x="0" y="782.3" width="1610.4" height="24.65"/>
            </clipPath>
<clipPath id="terminal-345388684-line-33">
    <rect x="0" y="806.7" width="1610.4" height="24.65"/>
            </clipPath>
<clipPath id="terminal-345388684-line-34">
    <rect x="0" y="831.1" width="1610.4" height="24.65"/>
            </clipPath>
    </defs>

    <rect fill="#292929" stroke="rgba(255,255,255,0.35)" stroke-width="1" x="1" y="1" width="1627" height="926.4" rx="8"/><text class="terminal-345388684-title" fill="#c5c8c6" text-anchor="middle" x="813" y="27">Grove&#160;·&#160;empty&#160;state</text>
            <g transform="translate(26,22)">
            <circle cx="0" cy="0" r="7" fill="#ff5f57"/>
            <circle cx="22" cy="0" r="7" fill="#febc2e"/>
            <circle cx="44" cy="0" r="7" fill="#28c840"/>
            </g>
        
    <g transform="translate(9, 41)" clip-path="url(#terminal-345388684-clip-terminal)">
    <rect fill="#d87757" x="0" y="1.5" width="12.2" height="24.65" shape-rendering="crispEdges"/><rect fill="#d87757" x="12.2" y="1.5" width="12.2" height="24.65" shape-rendering="crispEdges"/><rect fill="#d87757" x="24.4" y="1.5" width="61" height="24.65" shape-rendering="crispEdges"/><rect fill="#d87757" x="85.4" y="1.5" width="12.2" height="24.65" shape-rendering="crispEdges"/><rect fill="#d87757" x="97.6" y="1.5" width="585.6" height="24.65" shape-rendering="crispEdges"/><rect fill="#d87757" x="683.2" y="1.5" width="61" height="24.65" shape-rendering="crispEdges"/><rect fill="#d87757" x="744.2" y="1.5" width="36.6" height="24.65" shape-rendering="crispEdges"/><rect fill="#d87757" x="780.8" y="1.5" width="109.8" height="24.65" shape-rendering="crispEdges"/><rect fill="#d87757" x="890.6" y="1.5" width="597.8" height="24.65" shape-rendering="crispEdges"/><rect fill="#d87757" x="1488.4" y="1.5" width="12.2" height="24.65" shape-rendering="crispEdges"/><rect fill="#d87757" x="1500.6" y="1.5" width="0" height="24.65" shape-rendering="crispEdges"/><rect fill="#d87757" x="1500.6" y="1.5" width="97.6" height="24.65" shape-rendering="crispEdges"/><rect fill="#d87757" x="1598.2" y="1.5" width="12.2" height="24.65" shape-rendering="crispEdges"/><rect fill="#2d2d2b" x="0" y="25.9" width="12.2" height="24.65" shape-rendering="crispEdges"/><rect fill="#2d2d2b" x="12.2" y="25.9" width="634.4" height="24.65" shape-rendering="crispEdges"/><rect fill="#2d2d2b" x="646.6" y="25.9" width="12.2" height="24.65" shape-rendering="crispEdges"/><rect fill="#0e0e0d" x="658.8" y="25.9" width="12.2" height="24.65" shape-rendering="crispEdges"/><rect fill="#0e0e0d" x="671" y="25.9" width="12.2" height="24.65" shape-rendering="crispEdges"/><rect fill="#0e0e0d" x="683.2" y="25.9" width="109.8" height="24.65" shape-rendering="crispEdges"/><rect fill="#0e0e0d" x="793" y="25.9" width="793" height="24.65" shape-rendering="crispEdges"/><rect fill="#0e0e0d" x="1586" y="25.9" width="12.2" height="24.65" shape-rendering="crispEdges"/><rect fill="#2d2d2b" x="1598.2" y="25.9" width="12.2" height="24.65" shape-rendering="crispEdges"/><rect fill="#2d2d2b" x="0" y="50.3" width="12.2" height="24.65" shape-rendering="crispEdges"/><rect fill="#2d2d2b" x="12.2" y="50.3" width="634.4" height="24.65" shape-rendering="crispEdges"/><rect fill="#2d2d2b" x="646.6" y="50.3" width="12.2" height="24.65" shape-rendering="crispEdges"/><rect fill="#0e0e0d" x="658.8" y="50.3" width="12.2" height="24.65" shape-rendering="crispEdges"/><rect fill="#0e0e0d" x="671" y="50.3" width="12.2" height="24.65" shape-rendering="crispEdges"/><rect fill="#0e0e0d" x="683.2" y="50.3" width="280.6" height="24.65" shape-rendering="crispEdges"/><rect fill="#0e0e0d" x="963.8" y="50.3" width="610" height="24.65" shape-rendering="crispEdges"/><rect fill="#0e0e0d" x="1573.8" y="50.3" width="12.2" height="24.65" shape-rendering="crispEdges"/><rect fill="#0e0e0d" x="1586" y="50.3" width="12.2" height="24.65" shape-rendering="crispEdges"/><rect fill="#2d2d2b" x="1598.2" y="50.3" width="12.2" height="24.65" shape-rendering="crispEdges"/><rect fill="#2d2d2b" x="0" y="74.7" width="12.2" height="24.65" shape-rendering="crispEdges"/><rect fill="#2d2d2b" x="12.2" y="74.7" width="634.4" height="24.65" shape-rendering="crispEdges"/><rect fill="#2d2d2b" x="646.6" y="74.7" width="12.2" height="24.65" shape-rendering="crispEdges"/><rect fill="#0e0e0d" x="658.8" y="74.7" width="12.2" height="24.65" shape-rendering="crispEdges"/><rect fill="#0e0e0d" x="671" y="74.7" width="915" height="24.65" shape-rendering="crispEdges"/><rect fill="#0e0e0d" x="1586" y="74.7" width="12.2" height="24.65" shape-rendering="crispEdges"/><rect fill="#2d2d2b" x="1598.2" y="74.7" width="12.2" height="24.65" shape-rendering="crispEdges"/><rect fill="#2d2d2b" x="0" y="99.1" width="12.2" height="24.65" shape-rendering="crispEdges"/><rect fill="#2d2d2b" x="12.2" y="99.1" width="634.4" height="24.65" shape-rendering="crispEdges"/><rect fill="#2d2d2b" x="646.6" y="99.1" width="12.2" height="24.65" shape-rendering="crispEdges"/><rect fill="#2d2d2b" x="658.8" y="99.1" width="939.4" height="24.65" shape-rendering="crispEdges"/><rect fill="#2d2d2b" x="1598.2" y="99.1" width="12.2" height="24.65" shape-rendering="crispEdges"/><rect fill="#2d2d2b" x="0" y="123.5" width="12.2" height="24.65" shape-rendering="crispEdges"/><rect fill="#2d2d2b" x="12.2" y="123.5" width="634.4" height="24.65" shape-rendering="crispEdges"/><rect fill="#2d2d2b" x="646.6" y="123.5" width="12.2" height="24.65" shape-rendering="crispEdges"/><rect fill="#2d2d2b" x="658.8" y="123.5" width="939.4" height="24.65" shape-rendering="crispEdges"/><rect fill="#2d2d2b" x="1598.2" y="123.5" width="12.2" height="24.65" shape-rendering="crispEdges"/><rect fill="#2d2d2b" x="0" y="147.9" width="12.2" height="24.65" shape-rendering="crispEdges"/><rect fill="#2d2d2b" x="12.2" y="147.9" width="634.4" height="24.65" shape-rendering="crispEdges"/><rect fill="#2d2d2b" x="646.6" y="147.9" width="12.2" height="24.65" shape-rendering="crispEdges"/><rect fill="#2d2d2b" x="658.8" y="147.9" width="939.4" height="24.65" shape-rendering="crispEdges"/><rect fill="#2d2d2b" x="1598.2" y="147.9" width="12.2" height="24.65" shape-rendering="crispEdges"/><rect fill="#2d2d2b" x="0" y="172.3" width="12.2" height="24.65" shape-rendering="crispEdges"/><rect fill="#2d2d2b" x="12.2" y="172.3" width="634.4" height="24.65" shape-rendering="crispEdges"/><rect fill="#2d2d2b" x="646.6" y="172.3" width="12.2" height="24.65" shape-rendering="crispEdges"/><rect fill="#2d2d2b" x="658.8" y="172.3" width="939.4" height="24.65" shape-rendering="crispEdges"/><rect fill="#2d2d2b" x="1598.2" y="172.3" width="12.2" height="24.65" shape-rendering="crispEdges"/><rect fill="#2d2d2b" x="0" y="196.7" width="12.2" height="24.65" shape-rendering="crispEdges"/><rect fill="#2d2d2b" x="12.2" y="196.7" width="634.4" height="24.65" shape-rendering="crispEdges"/><rect fill="#2d2d2b" x="646.6" y="196.7" width="12.2" height="24.65" shape-rendering="crispEdges"/><rect fill="#2d2d2b" x="658.8" y="196.7" width="939.4" height="24.65" shape-rendering="crispEdges"/><rect fill="#2d2d2b" x="1598.2" y="196.7" width="12.2" height="24.65" shape-rendering="crispEdges"/><rect fill="#2d2d2b" x="0" y="221.1" width="12.2" height="24.65" shape-rendering="crispEdges"/><rect fill="#2d2d2b" x="12.2" y="221.1" width="634.4" height="24.65" shape-rendering="crispEdges"/><rect fill="#2d2d2b" x="646.6" y="221.1" width="12.2" height="24.65" shape-rendering="crispEdges"/><rect fill="#2d2d2b" x="658.8" y="221.1" width="939.4" height="24.65" shape-rendering="crispEdges"/><rect fill="#2d2d2b" x="1598.2" y="221.1" width="12.2" height="24.65" shape-rendering="crispEdges"/><rect fill="#2d2d2b" x="0" y="245.5" width="12.2" height="24.65" shape-rendering="crispEdges"/><rect fill="#2d2d2b" x="12.2" y="245.5" width="634.4" height="24.65" shape-rendering="crispEdges"/><rect fill="#2d2d2b" x="646.6" y="245.5" width="12.2" height="24.65" shape-rendering="crispEdges"/><rect fill="#2d2d2b" x="658.8" y="245.5" width="939.4" height="24.65" shape-rendering="crispEdges"/><rect fill="#2d2d2b" x="1598.2" y="245.5" width="12.2" height="24.65" shape-rendering="crispEdges"/><rect fill="#2d2d2b" x="0" y="269.9" width="12.2" height="24.65" shape-rendering="crispEdges"/><rect fill="#2d2d2b" x="12.2" y="269.9" width="634.4" height="24.65" shape-rendering="crispEdges"/><rect fill="#2d2d2b" x="646.6" y="269.9" width="12.2" height="24.65" shape-rendering="crispEdges"/><rect fill="#2d2d2b" x="658.8" y="269.9" width="939.4" height="24.65" shape-rendering="crispEdges"/><rect fill="#2d2d2b" x="1598.2" y="269.9" width="12.2" height="24.65" shape-rendering="crispEdges"/><rect fill="#2d2d2b" x="0" y="294.3" width="12.2" height="24.65" shape-rendering="crispEdges"/><rect fill="#2d2d2b" x="12.2" y="294.3" width="634.4" height="24.65" shape-rendering="crispEdges"/><rect fill="#2d2d2b" x="646.6" y="294.3" width="12.2" height="24.65" shape-rendering="crispEdges"/><rect fill="#2d2d2b" x="658.8" y="294.3" width="939.4" height="24.65" shape-rendering="crispEdges"/><rect fill="#2d2d2b" x="1598.2" y="294.3" width="12.2" height="24.65" shape-rendering="crispEdges"/><rect fill="#2d2d2b" x="0" y="318.7" width="12.2" height="24.65" shape-rendering="crispEdges"/><rect fill="#2d2d2b" x="12.2" y="318.7" width="634.4" height="24.65" shape-rendering="crispEdges"/><rect fill="#2d2d2b" x="646.6" y="318.7" width="12.2" height="24.65" shape-rendering="crispEdges"/><rect fill="#2d2d2b" x="658.8" y="318.7" width="939.4" height="24.65" shape-rendering="crispEdges"/><rect fill="#2d2d2b" x="1598.2" y="318.7" width="12.2" height="24.65" shape-rendering="crispEdges"/><rect fill="#2d2d2b" x="0" y="343.1" width="12.2" height="24.65" shape-rendering="crispEdges"/><rect fill="#2d2d2b" x="12.2" y="343.1" width="634.4" height="24.65" shape-rendering="crispEdges"/><rect fill="#2d2d2b" x="646.6" y="343.1" width="12.2" height="24.65" shape-rendering="crispEdges"/><rect fill="#2d2d2b" x="658.8" y="343.1" width="939.4" height="24.65" shape-rendering="crispEdges"/><rect fill="#2d2d2b" x="1598.2" y="343.1" width="12.2" height="24.65" shape-rendering="crispEdges"/><rect fill="#2d2d2b" x="0" y="367.5" width="12.2" height="24.65" shape-rendering="crispEdges"/><rect fill="#2d2d2b" x="12.2" y="367.5" width="634.4" height="24.65" shape-rendering="crispEdges"/><rect fill="#2d2d2b" x="646.6" y="367.5" width="12.2" height="24.65" shape-rendering="crispEdges"/><rect fill="#2d2d2b" x="658.8" y="367.5" width="939.4" height="24.65" shape-rendering="crispEdges"/><rect fill="#2d2d2b" x="1598.2" y="367.5" width="12.2" height="24.65" shape-rendering="crispEdges"/><rect fill="#2d2d2b" x="0" y="391.9" width="12.2" height="24.65" shape-rendering="crispEdges"/><rect fill="#2d2d2b" x="12.2" y="391.9" width="36.6" height="24.65" shape-rendering="crispEdges"/><rect fill="#0e0e0d" x="48.8" y="391.9" width="12.2" height="24.65" shape-rendering="crispEdges"/><rect fill="#0e0e0d" x="61" y="391.9" width="524.6" height="24.65" shape-rendering="crispEdges"/><rect fill="#0e0e0d" x="585.6" y="391.9" width="12.2" height="24.65" shape-rendering="crispEdges"/><rect fill="#2d2d2b" x="597.8" y="391.9" width="48.8" height="24.65" shape-rendering="crispEdges"/><rect fill="#2d2d2b" x="646.6" y="391.9" width="12.2" height="24.65" shape-rendering="crispEdges"/><rect fill="#2d2d2b" x="658.8" y="391.9" width="939.4" height="24.65" shape-rendering="crispEdges"/><rect fill="#2d2d2b" x="1598.2" y="391.9" width="12.2" height="24.65" shape-rendering="crispEdges"/><rect fill="#2d2d2b" x="0" y="416.3" width="12.2" height="24.65" shape-rendering="crispEdges"/><rect fill="#2d2d2b" x="12.2" y="416.3" width="36.6" height="24.65" shape-rendering="crispEdges"/><rect fill="#0e0e0d" x="48.8" y="416.3" width="12.2" height="24.65" shape-rendering="crispEdges"/><rect fill="#0e0e0d" x="61" y="416.3" width="12.2" height="24.65" shape-rendering="crispEdges"/><rect fill="#0e0e0d" x="73.2" y="416.3" width="317.2" height="24.65" shape-rendering="crispEdges"/><rect fill="#0e0e0d" x="390.4" y="416.3" width="12.2" height="24.65" shape-rendering="crispEdges"/><rect fill="#0e0e0d" x="402.6" y="416.3" width="170.8" height="24.65" shape-rendering="crispEdges"/><rect fill="#0e0e0d" x="573.4" y="416.3" width="12.2" height="24.65" shape-rendering="crispEdges"/><rect fill="#0e0e0d" x="585.6" y="416.3" width="12.2" height="24.65" shape-rendering="crispEdges"/><rect fill="#2d2d2b" x="597.8" y="416.3" width="48.8" height="24.65" shape-rendering="crispEdges"/><rect fill="#2d2d2b" x="646.6" y="416.3" width="12.2" height="24.65" shape-rendering="crispEdges"/><rect fill="#2d2d2b" x="658.8" y="416.3" width="939.4" height="24.65" shape-rendering="crispEdges"/><rect fill="#2d2d2b" x="1598.2" y="416.3" width="12.2" height="24.65" shape-rendering="crispEdges"/><rect fill="#2d2d2b" x="0" y="440.7" width="12.2" height="24.65" shape-rendering="crispEdges"/><rect fill="#2d2d2b" x="12.2" y="440.7" width="36.6" height="24.65" shape-rendering="crispEdges"/><rect fill="#0e0e0d" x="48.8" y="440.7" width="12.2" height="24.65" shape-rendering="crispEdges"/><rect fill="#0e0e0d" x="61" y="440.7" width="524.6" height="24.65" shape-rendering="crispEdges"/><rect fill="#0e0e0d" x="585.6" y="440.7" width="12.2" height="24.65" shape-rendering="crispEdges"/><rect fill="#2d2d2b" x="597.8" y="440.7" width="48.8" height="24.65" shape-rendering="crispEdges"/><rect fill="#2d2d2b" x="646.6" y="440.7" width="12.2" height="24.65" shape-rendering="crispEdges"/><rect fill="#2d2d2b" x="658.8" y="440.7" width="939.4" height="24.65" shape-rendering="crispEdges"/><rect fill="#2d2d2b" x="1598.2" y="440.7" width="12.2" height="24.65" shape-rendering="crispEdges"/><rect fill="#2d2d2b" x="0" y="465.1" width="12.2" height="24.65" shape-rendering="crispEdges"/><rect fill="#2d2d2b" x="12.2" y="465.1" width="634.4" height="24.65" shape-rendering="crispEdges"/><rect fill="#2d2d2b" x="646.6" y="465.1" width="12.2" height="24.65" shape-rendering="crispEdges"/><rect fill="#2d2d2b" x="658.8" y="465.1" width="939.4" height="24.65" shape-rendering="crispEdges"/><rect fill="#2d2d2b" x="1598.2" y="465.1" width="12.2" height="24.65" shape-rendering="crispEdges"/><rect fill="#2d2d2b" x="0" y="489.5" width="12.2" height="24.65" shape-rendering="crispEdges"/><rect fill="#2d2d2b" x="12.2" y="489.5" width="634.4" height="24.65" shape-rendering="crispEdges"/><rect fill="#2d2d2b" x="646.6" y="489.5" width="12.2" height="24.65" shape-rendering="crispEdges"/><rect fill="#2d2d2b" x="658.8" y="489.5" width="939.4" height="24.65" shape-rendering="crispEdges"/><rect fill="#2d2d2b" x="1598.2" y="489.5" width="12.2" height="24.65" shape-rendering="crispEdges"/><rect fill="#2d2d2b" x="0" y="513.9" width="12.2" height="24.65" shape-rendering="crispEdges"/><rect fill="#2d2d2b" x="12.2" y="513.9" width="634.4" height="24.65" shape-rendering="crispEdges"/><rect fill="#2d2d2b" x="646.6" y="513.9" width="12.2" height="24.65" shape-rendering="crispEdges"/><rect fill="#2d2d2b" x="658.8" y="513.9" width="939.4" height="24.65" shape-rendering="crispEdges"/><rect fill="#2d2d2b" x="1598.2" y="513.9" width="12.2" height="24.65" shape-rendering="crispEdges"/><rect fill="#2d2d2b" x="0" y="538.3" width="12.2" height="24.65" shape-rendering="crispEdges"/><rect fill="#2d2d2b" x="12.2" y="538.3" width="634.4" height="24.65" shape-rendering="crispEdges"/><rect fill="#2d2d2b" x="646.6" y="538.3" width="12.2" height="24.65" shape-rendering="crispEdges"/><rect fill="#2d2d2b" x="658.8" y="538.3" width="939.4" height="24.65" shape-rendering="crispEdges"/><rect fill="#2d2d2b" x="1598.2" y="538.3" width="12.2" height="24.65" shape-rendering="crispEdges"/><rect fill="#2d2d2b" x="0" y="562.7" width="12.2" height="24.65" shape-rendering="crispEdges"/><rect fill="#2d2d2b" x="12.2" y="562.7" width="634.4" height="24.65" shape-rendering="crispEdges"/><rect fill="#2d2d2b" x="646.6" y="562.7" width="12.2" height="24.65" shape-rendering="crispEdges"/><rect fill="#2d2d2b" x="658.8" y="562.7" width="939.4" height="24.65" shape-rendering="crispEdges"/><rect fill="#2d2d2b" x="1598.2" y="562.7" width="12.2" height="24.65" shape-rendering="crispEdges"/><rect fill="#2d2d2b" x="0" y="587.1" width="12.2" height="24.65" shape-rendering="crispEdges"/><rect fill="#2d2d2b" x="12.2" y="587.1" width="634.4" height="24.65" shape-rendering="crispEdges"/><rect fill="#2d2d2b" x="646.6" y="587.1" width="12.2" height="24.65" shape-rendering="crispEdges"/><rect fill="#2d2d2b" x="658.8" y="587.1" width="939.4" height="24.65" shape-rendering="crispEdges"/><rect fill="#2d2d2b" x="1598.2" y="587.1" width="12.2" height="24.65" shape-rendering="crispEdges"/><rect fill="#2d2d2b" x="0" y="611.5" width="12.2" height="24.65" shape-rendering="crispEdges"/><rect fill="#2d2d2b" x="12.2" y="611.5" width="634.4" height="24.65" shape-rendering="crispEdges"/><rect fill="#2d2d2b" x="646.6" y="611.5" width="12.2" height="24.65" shape-rendering="crispEdges"/><rect fill="#2d2d2b" x="658.8" y="611.5" width="939.4" height="24.65" shape-rendering="crispEdges"/><rect fill="#2d2d2b" x="1598.2" y="611.5" width="12.2" height="24.65" shape-rendering="crispEdges"/><rect fill="#2d2d2b" x="0" y="635.9" width="12.2" height="24.65" shape-rendering="crispEdges"/><rect fill="#2d2d2b" x="12.2" y="635.9" width="634.4" height="24.65" shape-rendering="crispEdges"/><rect fill="#2d2d2b" x="646.6" y="635.9" width="12.2" height="24.65" shape-rendering="crispEdges"/><rect fill="#2d2d2b" x="658.8" y="635.9" width="939.4" height="24.65" shape-rendering="crispEdges"/><rect fill="#2d2d2b" x="1598.2" y="635.9" width="12.2" height="24.65" shape-rendering="crispEdges"/><rect fill="#2d2d2b" x="0" y="660.3" width="12.2" height="24.65" shape-rendering="crispEdges"/><rect fill="#2d2d2b" x="12.2" y="660.3" width="634.4" height="24.65" shape-rendering="crispEdges"/><rect fill="#2d2d2b" x="646.6" y="660.3" width="12.2" height="24.65" shape-rendering="crispEdges"/><rect fill="#2d2d2b" x="658.8" y="660.3" width="939.4" height="24.65" shape-rendering="crispEdges"/><rect fill="#2d2d2b" x="1598.2" y="660.3" width="12.2" height="24.65" shape-rendering="crispEdges"/><rect fill="#2d2d2b" x="0" y="684.7" width="12.2" height="24.65" shape-rendering="crispEdges"/><rect fill="#2d2d2b" x="12.2" y="684.7" width="634.4" height="24.65" shape-rendering="crispEdges"/><rect fill="#2d2d2b" x="646.6" y="684.7" width="12.2" height="24.65" shape-rendering="crispEdges"/><rect fill="#2d2d2b" x="658.8" y="684.7" width="939.4" height="24.65" shape-rendering="crispEdges"/><rect fill="#2d2d2b" x="1598.2" y="684.7" width="12.2" height="24.65" shape-rendering="crispEdges"/><rect fill="#2d2d2b" x="0" y="709.1" width="12.2" height="24.65" shape-rendering="crispEdges"/><rect fill="#2d2d2b" x="12.2" y="709.1" width="634.4" height="24.65" shape-rendering="crispEdges"/><rect fill="#2d2d2b" x="646.6" y="709.1" width="12.2" height="24.65" shape-rendering="crispEdges"/><rect fill="#2d2d2b" x="658.8" y="709.1" width="939.4" height="24.65" shape-rendering="crispEdges"/><rect fill="#2d2d2b" x="1598.2" y="709.1" width="12.2" height="24.65" shape-rendering="crispEdges"/><rect fill="#2d2d2b" x="0" y="733.5" width="12.2" height="24.65" shape-rendering="crispEdges"/><rect fill="#2d2d2b" x="12.2" y="733.5" width="634.4" height="24.65" shape-rendering="crispEdges"/><rect fill="#2d2d2b" x="646.6" y="733.5" width="12.2" height="24.65" shape-rendering="crispEdges"/><rect fill="#2d2d2b" x="658.8" y="733.5" width="939.4" height="24.65" shape-rendering="crispEdges"/><rect fill="#2d2d2b" x="1598.2" y="733.5" width="12.2" height="24.65" shape-rendering="crispEdges"/><rect fill="#2d2d2b" x="0" y="757.9" width="12.2" height="24.65" shape-rendering="crispEdges"/><rect fill="#2d2d2b" x="12.2" y="757.9" width="634.4" height="24.65" shape-rendering="crispEdges"/><rect fill="#2d2d2b" x="646.6" y="757.9" width="12.2" height="24.65" shape-rendering="crispEdges"/><rect fill="#2d2d2b" x="658.8" y="757.9" width="939.4" height="24.65" shape-rendering="crispEdges"/><rect fill="#2d2d2b" x="1598.2" y="757.9" width="12.2" height="24.65" shape-rendering="crispEdges"/><rect fill="#2d2d2b" x="0" y="782.3" width="12.2" height="24.65" shape-rendering="crispEdges"/><rect fill="#2d2d2b" x="12.2" y="782.3" width="634.4" height="24.65" shape-rendering="crispEdges"/><rect fill="#2d2d2b" x="646.6" y="782.3" width="12.2" height="24.65" shape-rendering="crispEdges"/><rect fill="#2d2d2b" x="658.8" y="782.3" width="939.4" height="24.65" shape-rendering="crispEdges"/><rect fill="#2d2d2b" x="1598.2" y="782.3" width="12.2" height="24.65" shape-rendering="crispEdges"/><rect fill="#2d2d2b" x="0" y="806.7" width="12.2" height="24.65" shape-rendering="crispEdges"/><rect fill="#2d2d2b" x="12.2" y="806.7" width="634.4" height="24.65" shape-rendering="crispEdges"/><rect fill="#2d2d2b" x="646.6" y="806.7" width="12.2" height="24.65" shape-rendering="crispEdges"/><rect fill="#2d2d2b" x="658.8" y="806.7" width="939.4" height="24.65" shape-rendering="crispEdges"/><rect fill="#2d2d2b" x="1598.2" y="806.7" width="12.2" height="24.65" shape-rendering="crispEdges"/><rect fill="#363633" x="0" y="831.1" width="12.2" height="24.65" shape-rendering="crispEdges"/><rect fill="#363633" x="12.2" y="831.1" width="134.2" height="24.65" shape-rendering="crispEdges"/><rect fill="#363633" x="146.4" y="831.1" width="1378.6" height="24.65" shape-rendering="crispEdges"/><rect fill="#363633" x="1525" y="831.1" width="48.8" height="24.65" shape-rendering="crispEdges"/><rect fill="#363633" x="1573.8" y="831.1" width="24.4" height="24.65" shape-rendering="crispEdges"/><rect fill="#363633" x="1598.2" y="831.1" width="12.2" height="24.65" shape-rendering="crispEdges"/><rect fill="#2d2d2b" x="0" y="855.5" width="24.4" height="24.65" shape-rendering="crispEdges"/><rect fill="#2d2d2b" x="24.4" y="855.5" width="12.2" height="24.65" shape-rendering="crispEdges"/><rect fill="#2d2d2b" x="36.6" y="855.5" width="73.2" height="24.65" shape-rendering="crispEdges"/><rect fill="#2d2d2b" x="109.8" y="855.5" width="12.2" height="24.65" shape-rendering="crispEdges"/><rect fill="#2d2d2b" x="122" y="855.5" width="12.2" height="24.65" shape-rendering="crispEdges"/><rect fill="#2d2d2b" x="134.2" y="855.5" width="12.2" height="24.65" shape-rendering="crispEdges"/><rect fill="#2d2d2b" x="146.4" y="855.5" width="61" height="24.65" shape-rendering="crispEdges"/><rect fill="#2d2d2b" x="207.4" y="855.5" width="12.2" height="24.65" shape-rendering="crispEdges"/><rect fill="#2d2d2b" x="219.6" y="855.5" width="12.2" height="24.65" shape-rendering="crispEdges"/><rect fill="#2d2d2b" x="231.8" y="855.5" width="12.2" height="24.65" shape-rendering="crispEdges"/><rect fill="#2d2d2b" x="244" y="855.5" width="109.8" height="24.65" shape-rendering="crispEdges"/><rect fill="#2d2d2b" x="353.8" y="855.5" width="12.2" height="24.65" shape-rendering="crispEdges"/><rect fill="#2d2d2b" x="366" y="855.5" width="12.2" height="24.65" shape-rendering="crispEdges"/><rect fill="#2d2d2b" x="378.2" y="855.5" width="12.2" height="24.65" shape-rendering="crispEdges"/><rect fill="#2d2d2b" x="390.4" y="855.5" width="97.6" height="24.65" shape-rendering="crispEdges"/><rect fill="#2d2d2b" x="488" y="855.5" width="12.2" height="24.65" shape-rendering="crispEdges"/><rect fill="#2d2d2b" x="500.2" y="855.5" width="12.2" height="24.65" shape-rendering="crispEdges"/><rect fill="#2d2d2b" x="512.4" y="855.5" width="12.2" height="24.65" shape-rendering="crispEdges"/><rect fill="#2d2d2b" x="524.6" y="855.5" width="85.4" height="24.65" shape-rendering="crispEdges"/><rect fill="#2d2d2b" x="610" y="855.5" width="12.2" height="24.65" shape-rendering="crispEdges"/><rect fill="#2d2d2b" x="622.2" y="855.5" width="24.4" height="24.65" shape-rendering="crispEdges"/><rect fill="#2d2d2b" x="646.6" y="855.5" width="170.8" height="24.65" shape-rendering="crispEdges"/><rect fill="#2d2d2b" x="817.4" y="855.5" width="12.2" height="24.65" shape-rendering="crispEdges"/><rect fill="#2d2d2b" x="829.6" y="855.5" width="12.2" height="24.65" shape-rendering="crispEdges"/><rect fill="#2d2d2b" x="841.8" y="855.5" width="12.2" height="24.65" shape-rendering="crispEdges"/><rect fill="#2d2d2b" x="854" y="855.5" width="85.4" height="24.65" shape-rendering="crispEdges"/><rect fill="#2d2d2b" x="939.4" y="855.5" width="12.2" height="24.65" shape-rendering="crispEdges"/><rect fill="#2d2d2b" x="951.6" y="855.5" width="12.2" height="24.65" shape-rendering="crispEdges"/><rect fill="#2d2d2b" x="963.8" y="855.5" width="12.2" height="24.65" shape-rendering="crispEdges"/><rect fill="#2d2d2b" x="976" y="855.5" width="97.6" height="24.65" shape-rendering="crispEdges"/><rect fill="#2d2d2b" x="1073.6" y="855.5" width="12.2" height="24.65" shape-rendering="crispEdges"/><rect fill="#2d2d2b" x="1085.8" y="855.5" width="12.2" height="24.65" shape-rendering="crispEdges"/><rect fill="#2d2d2b" x="1098" y="855.5" width="12.2" height="24.65" shape-rendering="crispEdges"/><rect fill="#2d2d2b" x="1110.2" y="855.5" width="109.8" height="24.65" shape-rendering="crispEdges"/><rect fill="#2d2d2b" x="1220" y="855.5" width="12.2" height="24.65" shape-rendering="crispEdges"/><rect fill="#2d2d2b" x="1232.2" y="855.5" width="12.2" height="24.65" shape-rendering="crispEdges"/><rect fill="#2d2d2b" x="1244.4" y="855.5" width="12.2" height="24.65" shape-rendering="crispEdges"/><rect fill="#2d2d2b" x="1256.6" y="855.5" width="73.2" height="24.65" shape-rendering="crispEdges"/><rect fill="#2d2d2b" x="1329.8" y="855.5" width="256.2" height="24.65" shape-rendering="crispEdges"/><rect fill="#2d2d2b" x="1586" y="855.5" width="24.4" height="24.65" shape-rendering="crispEdges"/>
    <g class="terminal-345388684-matrix">
    <text class="terminal-345388684-r2" x="12.2" y="20" textLength="12.2" clip-path="url(#terminal-345388684-line-0)">⭘</text><text class="terminal-345388684-r2" x="683.2" y="20" textLength="61" clip-path="url(#terminal-345388684-line-0)">Grove</text><text class="terminal-345388684-r3" x="744.2" y="20" textLength="36.6" clip-path="url(#terminal-345388684-line-0)">&#160;—&#160;</text><text class="terminal-345388684-r3" x="780.8" y="20" textLength="109.8" clip-path="url(#terminal-345388684-line-0)">myproject</text><text class="terminal-345388684-r1" x="1610.4" y="20" textLength="12.2" clip-path="url(#terminal-345388684-line-0)">
</text><text class="terminal-345388684-r4" x="658.8" y="44.4" textLength="12.2" clip-path="url(#terminal-345388684-line-1)">╭</text><text class="terminal-345388684-r4" x="671" y="44.4" textLength="12.2" clip-path="url(#terminal-345388684-line-1)">─</text><text class="terminal-345388684-r5" x="683.2" y="44.4" textLength="109.8" clip-path="url(#terminal-345388684-line-1)">&#160;summary&#160;</text><text class="terminal-345388684-r4" x="793" y="44.4" textLength="793" clip-path="url(#terminal-345388684-line-1)">─────────────────────────────────────────────────────────────────</text><text class="terminal-345388684-r4" x="1586" y="44.4" textLength="12.2" clip-path="url(#terminal-345388684-line-1)">╮</text><text class="terminal-345388684-r1" x="1610.4" y="44.4" textLength="12.2" clip-path="url(#terminal-345388684-line-1)">
</text><text class="terminal-345388684-r4" x="658.8" y="68.8" textLength="12.2" clip-path="url(#terminal-345388684-line-2)">│</text><text class="terminal-345388684-r6" x="683.2" y="68.8" textLength="280.6" clip-path="url(#terminal-345388684-line-2)">(no&#160;workspace&#160;selected)</text><text class="terminal-345388684-r4" x="1586" y="68.8" textLength="12.2" clip-path="url(#terminal-345388684-line-2)">│</text><text class="terminal-345388684-r1" x="1610.4" y="68.8" textLength="12.2" clip-path="url(#terminal-345388684-line-2)">
</text><text class="terminal-345388684-r4" x="658.8" y="93.2" textLength="12.2" clip-path="url(#terminal-345388684-line-3)">╰</text><text class="terminal-345388684-r4" x="671" y="93.2" textLength="915" clip-path="url(#terminal-345388684-line-3)">───────────────────────────────────────────────────────────────────────────</text><text class="terminal-345388684-r4" x="1586" y="93.2" textLength="12.2" clip-path="url(#terminal-345388684-line-3)">╯</text><text class="terminal-345388684-r1" x="1610.4" y="93.2" textLength="12.2" clip-path="url(#terminal-345388684-line-3)">
</text><text class="terminal-345388684-r1" x="1610.4" y="117.6" textLength="12.2" clip-path="url(#terminal-345388684-line-4)">
</text><text class="terminal-345388684-r1" x="1610.4" y="142" textLength="12.2" clip-path="url(#terminal-345388684-line-5)">
</text><text class="terminal-345388684-r1" x="1610.4" y="166.4" textLength="12.2" clip-path="url(#terminal-345388684-line-6)">
</text><text class="terminal-345388684-r1" x="1610.4" y="190.8" textLength="12.2" clip-path="url(#terminal-345388684-line-7)">
</text><text class="terminal-345388684-r1" x="1610.4" y="215.2" textLength="12.2" clip-path="url(#terminal-345388684-line-8)">
</text><text class="terminal-345388684-r1" x="1610.4" y="239.6" textLength="12.2" clip-path="url(#terminal-345388684-line-9)">
</text><text class="terminal-345388684-r1" x="1610.4" y="264" textLength="12.2" clip-path="url(#terminal-345388684-line-10)">
</text><text class="terminal-345388684-r1" x="1610.4" y="288.4" textLength="12.2" clip-path="url(#terminal-345388684-line-11)">
</text><text class="terminal-345388684-r1" x="1610.4" y="312.8" textLength="12.2" clip-path="url(#terminal-345388684-line-12)">
</text><text class="terminal-345388684-r1" x="1610.4" y="337.2" textLength="12.2" clip-path="url(#terminal-345388684-line-13)">
</text><text class="terminal-345388684-r1" x="1610.4" y="361.6" textLength="12.2" clip-path="url(#terminal-345388684-line-14)">
</text><text class="terminal-345388684-r1" x="1610.4" y="386" textLength="12.2" clip-path="url(#terminal-345388684-line-15)">
</text><text class="terminal-345388684-r4" x="48.8" y="410.4" textLength="12.2" clip-path="url(#terminal-345388684-line-16)">╭</text><text class="terminal-345388684-r4" x="61" y="410.4" textLength="524.6" clip-path="url(#terminal-345388684-line-16)">───────────────────────────────────────────</text><text class="terminal-345388684-r4" x="585.6" y="410.4" textLength="12.2" clip-path="url(#terminal-345388684-line-16)">╮</text><text class="terminal-345388684-r1" x="1610.4" y="410.4" textLength="12.2" clip-path="url(#terminal-345388684-line-16)">
</text><text class="terminal-345388684-r4" x="48.8" y="434.8" textLength="12.2" clip-path="url(#terminal-345388684-line-17)">│</text><text class="terminal-345388684-r7" x="73.2" y="434.8" textLength="317.2" clip-path="url(#terminal-345388684-line-17)">no&#160;workspaces&#160;yet&#160;—&#160;press&#160;</text><text class="terminal-345388684-r8" x="390.4" y="434.8" textLength="12.2" clip-path="url(#terminal-345388684-line-17)">n</text><text class="terminal-345388684-r7" x="402.6" y="434.8" textLength="170.8" clip-path="url(#terminal-345388684-line-17)">&#160;to&#160;create&#160;one</text><text class="terminal-345388684-r4" x="585.6" y="434.8" textLength="12.2" clip-path="url(#terminal-345388684-line-17)">│</text><text class="terminal-345388684-r1" x="1610.4" y="434.8" textLength="12.2" clip-path="url(#terminal-345388684-line-17)">
</text><text class="terminal-345388684-r4" x="48.8" y="459.2" textLength="12.2" clip-path="url(#terminal-345388684-line-18)">╰</text><text class="terminal-345388684-r4" x="61" y="459.2" textLength="524.6" clip-path="url(#terminal-345388684-line-18)">───────────────────────────────────────────</text><text class="terminal-345388684-r4" x="585.6" y="459.2" textLength="12.2" clip-path="url(#terminal-345388684-line-18)">╯</text><text class="terminal-345388684-r1" x="1610.4" y="459.2" textLength="12.2" clip-path="url(#terminal-345388684-line-18)">
</text><text class="terminal-345388684-r1" x="1610.4" y="483.6" textLength="12.2" clip-path="url(#terminal-345388684-line-19)">
</text><text class="terminal-345388684-r1" x="1610.4" y="508" textLength="12.2" clip-path="url(#terminal-345388684-line-20)">
</text><text class="terminal-345388684-r1" x="1610.4" y="532.4" textLength="12.2" clip-path="url(#terminal-345388684-line-21)">
</text><text class="terminal-345388684-r1" x="1610.4" y="556.8" textLength="12.2" clip-path="url(#terminal-345388684-line-22)">
</text><text class="terminal-345388684-r1" x="1610.4" y="581.2" textLength="12.2" clip-path="url(#terminal-345388684-line-23)">
</text><text class="terminal-345388684-r1" x="1610.4" y="605.6" textLength="12.2" clip-path="url(#terminal-345388684-line-24)">
</text><text class="terminal-345388684-r1" x="1610.4" y="630" textLength="12.2" clip-path="url(#terminal-345388684-line-25)">
</text><text class="terminal-345388684-r1" x="1610.4" y="654.4" textLength="12.2" clip-path="url(#terminal-345388684-line-26)">
</text><text class="terminal-345388684-r1" x="1610.4" y="678.8" textLength="12.2" clip-path="url(#terminal-345388684-line-27)">
</text><text class="terminal-345388684-r1" x="1610.4" y="703.2" textLength="12.2" clip-path="url(#terminal-345388684-line-28)">
</text><text class="terminal-345388684-r1" x="1610.4" y="727.6" textLength="12.2" clip-path="url(#terminal-345388684-line-29)">
</text><text class="terminal-345388684-r1" x="1610.4" y="752" textLength="12.2" clip-path="url(#terminal-345388684-line-30)">
</text><text class="terminal-345388684-r1" x="1610.4" y="776.4" textLength="12.2" clip-path="url(#terminal-345388684-line-31)">
</text><text class="terminal-345388684-r1" x="1610.4" y="800.8" textLength="12.2" clip-path="url(#terminal-345388684-line-32)">
</text><text class="terminal-345388684-r1" x="1610.4" y="825.2" textLength="12.2" clip-path="url(#terminal-345388684-line-33)">
</text><text class="terminal-345388684-r9" x="12.2" y="849.6" textLength="134.2" clip-path="url(#terminal-345388684-line-34)">⌂&#160;myproject</text><text class="terminal-345388684-r4" x="1525" y="849.6" textLength="48.8" clip-path="url(#terminal-345388684-line-34)">dark</text><text class="terminal-345388684-r1" x="1610.4" y="849.6" textLength="12.2" clip-path="url(#terminal-345388684-line-34)">
</text><text class="terminal-345388684-r10" x="24.4" y="874" textLength="12.2" clip-path="url(#terminal-345388684-line-35)">q</text><text class="terminal-345388684-r11" x="36.6" y="874" textLength="73.2" clip-path="url(#terminal-345388684-line-35)">&#160;Quit&#160;</text><text class="terminal-345388684-r4" x="109.8" y="874" textLength="12.2" clip-path="url(#terminal-345388684-line-35)">·</text><text class="terminal-345388684-r10" x="134.2" y="874" textLength="12.2" clip-path="url(#terminal-345388684-line-35)">n</text><text class="terminal-345388684-r11" x="146.4" y="874" textLength="61" clip-path="url(#terminal-345388684-line-35)">&#160;New&#160;</text><text class="terminal-345388684-r4" x="207.4" y="874" textLength="12.2" clip-path="url(#terminal-345388684-line-35)">·</text><text class="terminal-345388684-r10" x="231.8" y="874" textLength="12.2" clip-path="url(#terminal-345388684-line-35)">r</text><text class="terminal-345388684-r11" x="244" y="874" textLength="109.8" clip-path="url(#terminal-345388684-line-35)">&#160;Refresh&#160;</text><text class="terminal-345388684-r4" x="353.8" y="874" textLength="12.2" clip-path="url(#terminal-345388684-line-35)">·</text><text class="terminal-345388684-r10" x="378.2" y="874" textLength="12.2" clip-path="url(#terminal-345388684-line-35)">/</text><text class="terminal-345388684-r11" x="390.4" y="874" textLength="97.6" clip-path="url(#terminal-345388684-line-35)">&#160;Filter&#160;</text><text class="terminal-345388684-r4" x="488" y="874" textLength="12.2" clip-path="url(#terminal-345388684-line-35)">·</text><text class="terminal-345388684-r10" x="512.4" y="874" textLength="12.2" clip-path="url(#terminal-345388684-line-35)">?</text><text class="terminal-345388684-r11" x="524.6" y="874" textLength="85.4" clip-path="url(#terminal-345388684-line-35)">&#160;Help&#160;&#160;</text><text class="terminal-345388684-r4" x="610" y="874" textLength="12.2" clip-path="url(#terminal-345388684-line-35)">│</text><text class="terminal-345388684-r12" x="646.6" y="874" textLength="170.8" clip-path="url(#terminal-345388684-line-35)">enter/a&#160;Attach</text><text class="terminal-345388684-r4" x="829.6" y="874" textLength="12.2" clip-path="url(#terminal-345388684-line-35)">·</text><text class="terminal-345388684-r12" x="854" y="874" textLength="85.4" clip-path="url(#terminal-345388684-line-35)">p&#160;Pause</text><text class="terminal-345388684-r4" x="951.6" y="874" textLength="12.2" clip-path="url(#terminal-345388684-line-35)">·</text><text class="terminal-345388684-r12" x="976" y="874" textLength="97.6" clip-path="url(#terminal-345388684-line-35)">R&#160;Resume</text><text class="terminal-345388684-r4" x="1085.8" y="874" textLength="12.2" clip-path="url(#terminal-345388684-line-35)">·</text><text class="terminal-345388684-r12" x="1110.2" y="874" textLength="109.8" clip-path="url(#terminal-345388684-line-35)">o&#160;Respawn</text><text class="terminal-345388684-r4" x="1232.2" y="874" textLength="12.2" clip-path="url(#terminal-345388684-line-35)">·</text><text class="terminal-345388684-r12" x="1256.6" y="874" textLength="73.2" clip-path="url(#terminal-345388684-line-35)">k&#160;Kill</text>
    </g>
    </g>
</svg>
