<svg class="rich-terminal" viewBox="0 0 1629 928.4" xmlns="http://www.w3.org/2000/svg">
    <!-- Generated with Rich https://www.textualize.io -->
    <style>

    @font-face {
        font-family: "Fira Code";
        src: local("FiraCode-Regular"),
                url("https://cdnjs.cloudflare.com/ajax/libs/firacode/6.2.0/woff2/FiraCode-Regular.woff2") format("woff2"),
                url("https://cdnjs.cloudflare.com/ajax/libs/firacode/6.2.0/woff/FiraCode-Regular.woff") format("woff");
        font-style: normal;
        font-weight: 400;
    }
    @font-face {
        font-family: "Fira Code";
        src: local("FiraCode-Bold"),
                url("https://cdnjs.cloudflare.com/ajax/libs/firacode/6.2.0/woff2/FiraCode-Bold.woff2") format("woff2"),
                url("https://cdnjs.cloudflare.com/ajax/libs/firacode/6.2.0/woff/FiraCode-Bold.woff") format("woff");
        font-style: bold;
        font-weight: 700;
    }

    .terminal-674134868-matrix {
        font-family: Fira Code, monospace;
        font-size: 20px;
        line-height: 24.4px;
        font-variant-east-asian: full-width;
    }

    .terminal-674134868-title {
        font-size: 18px;
        font-weight: bold;
        font-family: arial;
    }

    .terminal-674134868-r1 { fill: #c5c8c6 }
.terminal-674134868-r2 { fill: #2d2d2b }
.terminal-674134868-r3 { fill: #d87757 }
.terminal-674134868-r4 { fill: #fcfbf9;font-weight: bold }
.terminal-674134868-r5 { fill: #fcfbf9 }
.terminal-674134868-r6 { fill: #9e9e9e }
.terminal-674134868-r7 { fill: #0e0e0d }
.terminal-674134868-r8 { fill: #d97757 }
.terminal-674134868-r9 { fill: #363633 }
.terminal-674134868-r10 { fill: #89bb56 }
.terminal-674134868-r11 { fill: #1c0f0b;font-weight: bold }
.terminal-674134868-r12 { fill: #ff7670 }
.terminal-674134868-r13 { fill: #1e1e1d }
.terminal-674134868-r14 { fill: #fbe7e7;font-weight: bold }
.terminal-674134868-r15 { fill: #9f001a }
.terminal-674134868-r16 { fill: #000000 }
.terminal-674134868-r17 { fill: #d97757;font-weight: bold }
.terminal-674134868-r18 { fill: #e3e3e3 }
.terminal-674134868-r19 { fill: #96938c }
    </style>

    <defs>
    <clipPath id="terminal-674134868-clip-terminal">
      <rect x="0" y="0" width="1609.3999999999999" height="877.4" />
    </clipPath>
    <clipPath id="terminal-674134868-line-0">
    <rect x="0" y="1.5" width="1610.4" height="24.65"/>
            </clipPath>
<clipPath id="terminal-674134868-line-1">
    <rect x="0" y="25.9" width="1610.4" height="24.65"/>
            </clipPath>
<clipPath id="terminal-674134868-line-2">
    <rect x="0" y="50.3" width="1610.4" height="24.65"/>
            </clipPath>
<clipPath id="terminal-674134868-line-3">
    <rect x="0" y="74.7" width="1610.4" height="24.65"/>
            </clipPath>
<clipPath id="terminal-674134868-line-4">
    <rect x="0" y="99.1" width="1610.4" height="24.65"/>
            </clipPath>
<clipPath id="terminal-674134868-line-5">
    <rect x="0" y="123.5" width="1610.4" height="24.65"/>
            </clipPath>
<clipPath id="terminal-674134868-line-6">
    <rect x="0" y="147.9" width="1610.4" height="24.65"/>
            </clipPath>
<clipPath id="terminal-674134868-line-7">
    <rect x="0" y="172.3" width="1610.4" height="24.65"/>
            </clipPath>
<clipPath id="terminal-674134868-line-8">
    <rect x="0" y="196.7" width="1610.4" height="24.65"/>
            </clipPath>
<clipPath id="terminal-674134868-line-9">
    <rect x="0" y="221.1" width="1610.4" height="24.65"/>
            </clipPath>
<clipPath id="terminal-674134868-line-10">
    <rect x="0" y="245.5" width="1610.4" height="24.65"/>
            </clipPath>
<clipPath id="terminal-674134868-line-11">
    <rect x="0" y="269.9" width="1610.4" height="24.65"/>
            </clipPath>
<clipPath id="terminal-674134868-line-12">
    <rect x="0" y="294.3" width="1610.4" height="24.65"/>
            </clipPath>
<clipPath id="terminal-674134868-line-13">
    <rect x="0" y="318.7" width="1610.4" height="24.65"/>
            </clipPath>
<clipPath id="terminal-674134868-line-14">
    <rect x="0" y="343.1" width="1610.4" height="24.65"/>
            </clipPath>
<clipPath id="terminal-674134868-line-15">
    <rect x="0" y="367.5" width="1610.4" height="24.65"/>
            </clipPath>
<clipPath id="terminal-674134868-line-16">
    <rect x="0" y="391.9" width="1610.4" height="24.65"/>
            </clipPath>
<clipPath id="terminal-674134868-line-17">
    <rect x="0" y="416.3" width="1610.4" height="24.65"/>
            </clipPath>
<clipPath id="terminal-674134868-line-18">
    <rect x="0" y="440.7" width="1610.4" height="24.65"/>
            </clipPath>
<clipPath id="terminal-674134868-line-19">
    <rect x="0" y="465.1" width="1610.4" height="24.65"/>
            </clipPath>
<clipPath id="terminal-674134868-line-20">
    <rect x="0" y="489.5" width="1610.4" height="24.65"/>
            </clipPath>
<clipPath id="terminal-674134868-line-21">
    <rect x="0" y="513.9" width="1610.4" height="24.65"/>
            </clipPath>
<clipPath id="terminal-674134868-line-22">
    <rect x="0" y="538.3" width="1610.4" height="24.65"/>
            </clipPath>
<clipPath id="terminal-674134868-line-23">
    <rect x="0" y="562.7" width="1610.4" height="24.65"/>
            </clipPath>
<clipPath id="terminal-674134868-line-24">
    <rect x="0" y="587.1" width="1610.4" height="24.65"/>
            </clipPath>
<clipPath id="terminal-674134868-line-25">
    <rect x="0" y="611.5" width="1610.4" height="24.65"/>
            </clipPath>
<clipPath id="terminal-674134868-line-26">
    <rect x="0" y="635.9" width="1610.4" height="24.65"/>
            </clipPath>
<clipPath id="terminal-674134868-line-27">
    <rect x="0" y="660.3" width="1610.4" height="24.65"/>
            </clipPath>
<clipPath id="terminal-674134868-line-28">
    <rect x="0" y="684.7" width="1610.4" height="24.65"/>
            </clipPath>
<clipPath id="terminal-674134868-line-29">
    <rect x="0" y="709.1" width="1610.4" height="24.65"/>
            </clipPath>
<clipPath id="terminal-674134868-line-30">
    <rect x="0" y="733.5" width="1610.4" height="24.65"/>
            </clipPath>
<clipPath id="terminal-674134868-line-31">
    <rect x="0" y="757.9" width="1610.4" height="24.65"/>
            </clipPath>
<clipPath id="terminal-674134868-line-32">
    <rect x="0" y="782.3" width="1610.4" height="24.65"/>
            </clipPath>
<clipPath id="terminal-674134868-line-33">
    <rect x="0" y="806.7" width="1610.4" height="24.65"/>
            </clipPath>
<clipPath id="terminal-674134868-line-34">
    <rect x="0" y="831.1" width="1610.4" height="24.65"/>
            </clipPath>
    </defs>

    <rect fill="#292929" stroke="rgba(255,255,255,0.35)" stroke-width="1" x="1" y="1" width="1627" height="926.4" rx="8"/><text class="terminal-674134868-title" fill="#c5c8c6" text-anchor="middle" x="813" y="27">Grove&#160;·&#160;kill&#160;confirm</text>
            <g transform="translate(26,22)">
            <circle cx="0" cy="0" r="7" fill="#ff5f57"/>
            <circle cx="22" cy="0" r="7" fill="#febc2e"/>
            <circle cx="44" cy="0" r="7" fill="#28c840"/>
            </g>
        
    <g transform="translate(9, 41)" clip-path="url(#terminal-674134868-clip-terminal)">
    <rect fill="#2d2d2b" x="0" y="1.5" width="1610.4" height="24.65" shape-rendering="crispEdges"/><rect fill="#2d2d2b" x="0" y="25.9" width="1610.4" height="24.65" shape-rendering="crispEdges"/><rect fill="#2d2d2b" x="0" y="50.3" width="1610.4" height="24.65" shape-rendering="crispEdges"/><rect fill="#2d2d2b" x="0" y="74.7" width="1610.4" height="24.65" shape-rendering="crispEdges"/><rect fill="#2d2d2b" x="0" y="99.1" width="1610.4" height="24.65" shape-rendering="crispEdges"/><rect fill="#2d2d2b" x="0" y="123.5" width="317.2" height="24.65" shape-rendering="crispEdges"/><rect fill="#d87757" x="317.2" y="123.5" width="12.2" height="24.65" shape-rendering="crispEdges"/><rect fill="#0e0e0d" x="329.4" y="123.5" width="951.6" height="24.65" shape-rendering="crispEdges"/><rect fill="#2d2d2b" x="1281" y="123.5" width="12.2" height="24.65" shape-rendering="crispEdges"/><rect fill="#2d2d2b" x="1293.2" y="123.5" width="317.2" height="24.65" shape-rendering="crispEdges"/><rect fill="#2d2d2b" x="0" y="147.9" width="317.2" height="24.65" shape-rendering="crispEdges"/><rect fill="#d87757" x="317.2" y="147.9" width="12.2" height="24.65" shape-rendering="crispEdges"/><rect fill="#0e0e0d" x="329.4" y="147.9" width="951.6" height="24.65" shape-rendering="crispEdges"/><rect fill="#2d2d2b" x="1281" y="147.9" width="12.2" height="24.65" shape-rendering="crispEdges"/><rect fill="#2d2d2b" x="1293.2" y="147.9" width="317.2" height="24.65" shape-rendering="crispEdges"/><rect fill="#2d2d2b" x="0" y="172.3" width="317.2" height="24.65" shape-rendering="crispEdges"/><rect fill="#d87757" x="317.2" y="172.3" width="12.2" height="24.65" shape-rendering="crispEdges"/><rect fill="#0e0e0d" x="329.4" y="172.3" width="24.4" height="24.65" shape-rendering="crispEdges"/><rect fill="#0e0e0d" x="353.8" y="172.3" width="48.8" height="24.65" shape-rendering="crispEdges"/><rect fill="#0e0e0d" x="402.6" y="172.3" width="854" height="24.65" shape-rendering="crispEdges"/><rect fill="#0e0e0d" x="1256.6" y="172.3" width="24.4" height="24.65" shape-rendering="crispEdges"/><rect fill="#2d2d2b" x="1281" y="172.3" width="12.2" height="24.65" shape-rendering="crispEdges"/><rect fill="#2d2d2b" x="1293.2" y="172.3" width="317.2" height="24.65" shape-rendering="crispEdges"/><rect fill="#2d2d2b" x="0" y="196.7" width="317.2" height="24.65" shape-rendering="crispEdges"/><rect fill="#d87757" x="317.2" y="196.7" width="12.2" height="24.65" shape-rendering="crispEdges"/><rect fill="#0e0e0d" x="329.4" y="196.7" width="24.4" height="24.65" shape-rendering="crispEdges"/><rect fill="#0e0e0d" x="353.8" y="196.7" width="902.8" height="24.65" shape-rendering="crispEdges"/><rect fill="#0e0e0d" x="1256.6" y="196.7" width="24.4" height="24.65" shape-rendering="crispEdges"/><rect fill="#2d2d2b" x="1281" y="196.7" width="12.2" height="24.65" shape-rendering="crispEdges"/><rect fill="#2d2d2b" x="1293.2" y="196.7" width="317.2" height="24.65" shape-rendering="crispEdges"/><rect fill="#2d2d2b" x="0" y="221.1" width="317.2" height="24.65" shape-rendering="crispEdges"/><rect fill="#d87757" x="317.2" y="221.1" width="12.2" height="24.65" shape-rendering="crispEdges"/><rect fill="#0e0e0d" x="329.4" y="221.1" width="24.4" height="24.65" shape-rendering="crispEdges"/><rect fill="#0e0e0d" x="353.8" y="221.1" width="817.4" height="24.65" shape-rendering="crispEdges"/><rect fill="#0e0e0d" x="1171.2" y="221.1" width="85.4" height="24.65" shape-rendering="crispEdges"/><rect fill="#0e0e0d" x="1256.6" y="221.1" width="24.4" height="24.65" shape-rendering="crispEdges"/><rect fill="#2d2d2b" x="1281" y="221.1" width="12.2" height="24.65" shape-rendering="crispEdges"/><rect fill="#2d2d2b" x="1293.2" y="221.1" width="317.2" height="24.65" shape-rendering="crispEdges"/><rect fill="#2d2d2b" x="0" y="245.5" width="317.2" height="24.65" shape-rendering="crispEdges"/><rect fill="#d87757" x="317.2" y="245.5" width="12.2" height="24.65" shape-rendering="crispEdges"/><rect fill="#0e0e0d" x="329.4" y="245.5" width="24.4" height="24.65" shape-rendering="crispEdges"/><rect fill="#0e0e0d" x="353.8" y="245.5" width="902.8" height="24.65" shape-rendering="crispEdges"/><rect fill="#0e0e0d" x="1256.6" y="245.5" width="24.4" height="24.65" shape-rendering="crispEdges"/><rect fill="#2d2d2b" x="1281" y="245.5" width="12.2" height="24.65" shape-rendering="crispEdges"/><rect fill="#2d2d2b" x="1293.2" y="245.5" width="317.2" height="24.65" shape-rendering="crispEdges"/><rect fill="#2d2d2b" x="0" y="269.9" width="317.2" height="24.65" shape-rendering="crispEdges"/><rect fill="#d87757" x="317.2" y="269.9" width="12.2" height="24.65" shape-rendering="crispEdges"/><rect fill="#0e0e0d" x="329.4" y="269.9" width="24.4" height="24.65" shape-rendering="crispEdges"/><rect fill="#0e0e0d" x="353.8" y="269.9" width="451.4" height="24.65" shape-rendering="crispEdges"/><rect fill="#0e0e0d" x="805.2" y="269.9" width="451.4" height="24.65" shape-rendering="crispEdges"/><rect fill="#0e0e0d" x="1256.6" y="269.9" width="24.4" height="24.65" shape-rendering="crispEdges"/><rect fill="#2d2d2b" x="1281" y="269.9" width="12.2" height="24.65" shape-rendering="crispEdges"/><rect fill="#2d2d2b" x="1293.2" y="269.9" width="317.2" height="24.65" shape-rendering="crispEdges"/><rect fill="#2d2d2b" x="0" y="294.3" width="317.2" height="24.65" shape-rendering="crispEdges"/><rect fill="#d87757" x="317.2" y="294.3" width="12.2" height="24.65" shape-rendering="crispEdges"/><rect fill="#0e0e0d" x="329.4" y="294.3" width="24.4" height="24.65" shape-rendering="crispEdges"/><rect fill="#0e0e0d" x="353.8" y="294.3" width="231.8" height="24.65" shape-rendering="crispEdges"/><rect fill="#0e0e0d" x="585.6" y="294.3" width="671" height="24.65" shape-rendering="crispEdges"/><rect fill="#0e0e0d" x="1256.6" y="294.3" width="24.4" height="24.65" shape-rendering="crispEdges"/><rect fill="#2d2d2b" x="1281" y="294.3" width="12.2" height="24.65" shape-rendering="crispEdges"/><rect fill="#2d2d2b" x="1293.2" y="294.3" width="317.2" height="24.65" shape-rendering="crispEdges"/><rect fill="#2d2d2b" x="0" y="318.7" width="317.2" height="24.65" shape-rendering="crispEdges"/><rect fill="#d87757" x="317.2" y="318.7" width="12.2" height="24.65" shape-rendering="crispEdges"/><rect fill="#0e0e0d" x="329.4" y="318.7" width="24.4" height="24.65" shape-rendering="crispEdges"/><rect fill="#0e0e0d" x="353.8" y="318.7" width="902.8" height="24.65" shape-rendering="crispEdges"/><rect fill="#0e0e0d" x="1256.6" y="318.7" width="24.4" height="24.65" shape-rendering="crispEdges"/><rect fill="#2d2d2b" x="1281" y="318.7" width="12.2" height="24.65" shape-rendering="crispEdges"/><rect fill="#2d2d2b" x="1293.2" y="318.7" width="317.2" height="24.65" shape-rendering="crispEdges"/><rect fill="#2d2d2b" x="0" y="343.1" width="317.2" height="24.65" shape-rendering="crispEdges"/><rect fill="#d87757" x="317.2" y="343.1" width="12.2" height="24.65" shape-rendering="crispEdges"/><rect fill="#0e0e0d" x="329.4" y="343.1" width="24.4" height="24.65" shape-rendering="crispEdges"/><rect fill="#0e0e0d" x="353.8" y="343.1" width="109.8" height="24.65" shape-rendering="crispEdges"/><rect fill="#0e0e0d" x="463.6" y="343.1" width="793" height="24.65" shape-rendering="crispEdges"/><rect fill="#0e0e0d" x="1256.6" y="343.1" width="24.4" height="24.65" shape-rendering="crispEdges"/><rect fill="#2d2d2b" x="1281" y="343.1" width="12.2" height="24.65" shape-rendering="crispEdges"/><rect fill="#2d2d2b" x="1293.2" y="343.1" width="317.2" height="24.65" shape-rendering="crispEdges"/><rect fill="#2d2d2b" x="0" y="367.5" width="317.2" height="24.65" shape-rendering="crispEdges"/><rect fill="#d87757" x="317.2" y="367.5" width="12.2" height="24.65" shape-rendering="crispEdges"/><rect fill="#0e0e0d" x="329.4" y="367.5" width="24.4" height="24.65" shape-rendering="crispEdges"/><rect fill="#0e0e0d" x="353.8" y="367.5" width="292.8" height="24.65" shape-rendering="crispEdges"/><rect fill="#0e0e0d" x="646.6" y="367.5" width="610" height="24.65" shape-rendering="crispEdges"/><rect fill="#0e0e0d" x="1256.6" y="367.5" width="24.4" height="24.65" shape-rendering="crispEdges"/><rect fill="#2d2d2b" x="1281" y="367.5" width="12.2" height="24.65" shape-rendering="crispEdges"/><rect fill="#2d2d2b" x="1293.2" y="367.5" width="317.2" height="24.65" shape-rendering="crispEdges"/><rect fill="#2d2d2b" x="0" y="391.9" width="317.2" height="24.65" shape-rendering="crispEdges"/><rect fill="#d87757" x="317.2" y="391.9" width="12.2" height="24.65" shape-rendering="crispEdges"/><rect fill="#0e0e0d" x="329.4" y="391.9" width="24.4" height="24.65" shape-rendering="crispEdges"/><rect fill="#0e0e0d" x="353.8" y="391.9" width="158.6" height="24.65" shape-rendering="crispEdges"/><rect fill="#0e0e0d" x="512.4" y="391.9" width="744.2" height="24.65" shape-rendering="crispEdges"/><rect fill="#0e0e0d" x="1256.6" y="391.9" width="24.4" height="24.65" shape-rendering="crispEdges"/><rect fill="#2d2d2b" x="1281" y="391.9" width="12.2" height="24.65" shape-rendering="crispEdges"/><rect fill="#2d2d2b" x="1293.2" y="391.9" width="317.2" height="24.65" shape-rendering="crispEdges"/><rect fill="#2d2d2b" x="0" y="416.3" width="317.2" height="24.65" shape-rendering="crispEdges"/><rect fill="#d87757" x="317.2" y="416.3" width="12.2" height="24.65" shape-rendering="crispEdges"/><rect fill="#0e0e0d" x="329.4" y="416.3" width="24.4" height="24.65" shape-rendering="crispEdges"/><rect fill="#0e0e0d" x="353.8" y="416.3" width="902.8" height="24.65" shape-rendering="crispEdges"/><rect fill="#0e0e0d" x="1256.6" y="416.3" width="24.4" height="24.65" shape-rendering="crispEdges"/><rect fill="#2d2d2b" x="1281" y="416.3" width="12.2" height="24.65" shape-rendering="crispEdges"/><rect fill="#2d2d2b" x="1293.2" y="416.3" width="317.2" height="24.65" shape-rendering="crispEdges"/><rect fill="#2d2d2b" x="0" y="440.7" width="317.2" height="24.65" shape-rendering="crispEdges"/><rect fill="#d87757" x="317.2" y="440.7" width="12.2" height="24.65" shape-rendering="crispEdges"/><rect fill="#0e0e0d" x="329.4" y="440.7" width="24.4" height="24.65" shape-rendering="crispEdges"/><rect fill="#d97757" x="353.8" y="440.7" width="12.2" height="24.65" shape-rendering="crispEdges"/><rect fill="#191918" x="366" y="440.7" width="573.4" height="24.65" shape-rendering="crispEdges"/><rect fill="#0e0e0d" x="939.4" y="440.7" width="12.2" height="24.65" shape-rendering="crispEdges"/><rect fill="#0e0e0d" x="951.6" y="440.7" width="305" height="24.65" shape-rendering="crispEdges"/><rect fill="#0e0e0d" x="1256.6" y="440.7" width="24.4" height="24.65" shape-rendering="crispEdges"/><rect fill="#2d2d2b" x="1281" y="440.7" width="12.2" height="24.65" shape-rendering="crispEdges"/><rect fill="#2d2d2b" x="1293.2" y="440.7" width="317.2" height="24.65" shape-rendering="crispEdges"/><rect fill="#2d2d2b" x="0" y="465.1" width="317.2" height="24.65" shape-rendering="crispEdges"/><rect fill="#d87757" x="317.2" y="465.1" width="12.2" height="24.65" shape-rendering="crispEdges"/><rect fill="#0e0e0d" x="329.4" y="465.1" width="24.4" height="24.65" shape-rendering="crispEdges"/><rect fill="#d97757" x="353.8" y="465.1" width="12.2" height="24.65" shape-rendering="crispEdges"/><rect fill="#191918" x="366" y="465.1" width="12.2" height="24.65" shape-rendering="crispEdges"/><rect fill="#191918" x="378.2" y="465.1" width="12.2" height="24.65" shape-rendering="crispEdges"/><rect fill="#363633" x="390.4" y="465.1" width="12.2" height="24.65" shape-rendering="crispEdges"/><rect fill="#191918" x="402.6" y="465.1" width="12.2" height="24.65" shape-rendering="crispEdges"/><rect fill="#d97757" x="414.8" y="465.1" width="512.4" height="24.65" shape-rendering="crispEdges"/><rect fill="#191918" x="927.2" y="465.1" width="12.2" height="24.65" shape-rendering="crispEdges"/><rect fill="#0e0e0d" x="939.4" y="465.1" width="12.2" height="24.65" shape-rendering="crispEdges"/><rect fill="#0e0e0d" x="951.6" y="465.1" width="305" height="24.65" shape-rendering="crispEdges"/><rect fill="#0e0e0d" x="1256.6" y="465.1" width="24.4" height="24.65" shape-rendering="crispEdges"/><rect fill="#2d2d2b" x="1281" y="465.1" width="12.2" height="24.65" shape-rendering="crispEdges"/><rect fill="#2d2d2b" x="1293.2" y="465.1" width="317.2" height="24.65" shape-rendering="crispEdges"/><rect fill="#2d2d2b" x="0" y="489.5" width="317.2" height="24.65" shape-rendering="crispEdges"/><rect fill="#d87757" x="317.2" y="489.5" width="12.2" height="24.65" shape-rendering="crispEdges"/><rect fill="#0e0e0d" x="329.4" y="489.5" width="24.4" height="24.65" shape-rendering="crispEdges"/><rect fill="#d97757" x="353.8" y="489.5" width="12.2" height="24.65" shape-rendering="crispEdges"/><rect fill="#191918" x="366" y="489.5" width="573.4" height="24.65" shape-rendering="crispEdges"/><rect fill="#0e0e0d" x="939.4" y="489.5" width="12.2" height="24.65" shape-rendering="crispEdges"/><rect fill="#0e0e0d" x="951.6" y="489.5" width="305" height="24.65" shape-rendering="crispEdges"/><rect fill="#0e0e0d" x="1256.6" y="489.5" width="24.4" height="24.65" shape-rendering="crispEdges"/><rect fill="#2d2d2b" x="1281" y="489.5" width="12.2" height="24.65" shape-rendering="crispEdges"/><rect fill="#2d2d2b" x="1293.2" y="489.5" width="317.2" height="24.65" shape-rendering="crispEdges"/><rect fill="#2d2d2b" x="0" y="513.9" width="317.2" height="24.65" shape-rendering="crispEdges"/><rect fill="#d87757" x="317.2" y="513.9" width="12.2" height="24.65" shape-rendering="crispEdges"/><rect fill="#0e0e0d" x="329.4" y="513.9" width="24.4" height="24.65" shape-rendering="crispEdges"/><rect fill="#0e0e0d" x="353.8" y="513.9" width="902.8" height="24.65" shape-rendering="crispEdges"/><rect fill="#0e0e0d" x="1256.6" y="513.9" width="24.4" height="24.65" shape-rendering="crispEdges"/><rect fill="#2d2d2b" x="1281" y="513.9" width="12.2" height="24.65" shape-rendering="crispEdges"/><rect fill="#2d2d2b" x="1293.2" y="513.9" width="317.2" height="24.65" shape-rendering="crispEdges"/><rect fill="#2d2d2b" x="0" y="538.3" width="317.2" height="24.65" shape-rendering="crispEdges"/><rect fill="#d87757" x="317.2" y="538.3" width="12.2" height="24.65" shape-rendering="crispEdges"/><rect fill="#0e0e0d" x="329.4" y="538.3" width="24.4" height="24.65" shape-rendering="crispEdges"/><rect fill="#0e0e0d" x="353.8" y="538.3" width="524.6" height="24.65" shape-rendering="crispEdges"/><rect fill="#0e0e0d" x="878.4" y="538.3" width="378.2" height="24.65" shape-rendering="crispEdges"/><rect fill="#0e0e0d" x="1256.6" y="538.3" width="24.4" height="24.65" shape-rendering="crispEdges"/><rect fill="#2d2d2b" x="1281" y="538.3" width="12.2" height="24.65" shape-rendering="crispEdges"/><rect fill="#2d2d2b" x="1293.2" y="538.3" width="317.2" height="24.65" shape-rendering="crispEdges"/><rect fill="#2d2d2b" x="0" y="562.7" width="317.2" height="24.65" shape-rendering="crispEdges"/><rect fill="#d87757" x="317.2" y="562.7" width="12.2" height="24.65" shape-rendering="crispEdges"/><rect fill="#0e0e0d" x="329.4" y="562.7" width="24.4" height="24.65" shape-rendering="crispEdges"/><rect fill="#0e0e0d" x="353.8" y="562.7" width="902.8" height="24.65" shape-rendering="crispEdges"/><rect fill="#0e0e0d" x="1256.6" y="562.7" width="24.4" height="24.65" shape-rendering="crispEdges"/><rect fill="#2d2d2b" x="1281" y="562.7" width="12.2" height="24.65" shape-rendering="crispEdges"/><rect fill="#2d2d2b" x="1293.2" y="562.7" width="317.2" height="24.65" shape-rendering="crispEdges"/><rect fill="#2d2d2b" x="0" y="587.1" width="317.2" height="24.65" shape-rendering="crispEdges"/><rect fill="#d87757" x="317.2" y="587.1" width="12.2" height="24.65" shape-rendering="crispEdges"/><rect fill="#0e0e0d" x="329.4" y="587.1" width="24.4" height="24.65" shape-rendering="crispEdges"/><rect fill="#0e0e0d" x="353.8" y="587.1" width="488" height="24.65" shape-rendering="crispEdges"/><rect fill="#e54c4c" x="841.8" y="587.1" width="195.2" height="24.65" shape-rendering="crispEdges"/><rect fill="#0e0e0d" x="1037" y="587.1" width="12.2" height="24.65" shape-rendering="crispEdges"/><rect fill="#0e0e0d" x="1049.2" y="587.1" width="195.2" height="24.65" shape-rendering="crispEdges"/><rect fill="#0e0e0d" x="1244.4" y="587.1" width="12.2" height="24.65" shape-rendering="crispEdges"/><rect fill="#0e0e0d" x="1256.6" y="587.1" width="24.4" height="24.65" shape-rendering="crispEdges"/><rect fill="#2d2d2b" x="1281" y="587.1" width="12.2" height="24.65" shape-rendering="crispEdges"/><rect fill="#2d2d2b" x="1293.2" y="587.1" width="317.2" height="24.65" shape-rendering="crispEdges"/><rect fill="#2d2d2b" x="0" y="611.5" width="317.2" height="24.65" shape-rendering="crispEdges"/><rect fill="#d87757" x="317.2" y="611.5" width="12.2" height="24.65" shape-rendering="crispEdges"/><rect fill="#0e0e0d" x="329.4" y="611.5" width="24.4" height="24.65" shape-rendering="crispEdges"/><rect fill="#0e0e0d" x="353.8" y="611.5" width="488" height="24.65" shape-rendering="crispEdges"/><rect fill="#e54c4c" x="841.8" y="611.5" width="36.6" height="24.65" shape-rendering="crispEdges"/><rect fill="#e54c4c" x="878.4" y="611.5" width="122" height="24.65" shape-rendering="crispEdges"/><rect fill="#e54c4c" x="1000.4" y="611.5" width="36.6" height="24.65" shape-rendering="crispEdges"/><rect fill="#0e0e0d" x="1037" y="611.5" width="12.2" height="24.65" shape-rendering="crispEdges"/><rect fill="#0e0e0d" x="1049.2" y="611.5" width="24.4" height="24.65" shape-rendering="crispEdges"/><rect fill="#0e0e0d" x="1073.6" y="611.5" width="146.4" height="24.65" shape-rendering="crispEdges"/><rect fill="#0e0e0d" x="1220" y="611.5" width="24.4" height="24.65" shape-rendering="crispEdges"/><rect fill="#0e0e0d" x="1244.4" y="611.5" width="12.2" height="24.65" shape-rendering="crispEdges"/><rect fill="#0e0e0d" x="1256.6" y="611.5" width="24.4" height="24.65" shape-rendering="crispEdges"/><rect fill="#2d2d2b" x="1281" y="611.5" width="12.2" height="24.65" shape-rendering="crispEdges"/><rect fill="#2d2d2b" x="1293.2" y="611.5" width="317.2" height="24.65" shape-rendering="crispEdges"/><rect fill="#2d2d2b" x="0" y="635.9" width="317.2" height="24.65" shape-rendering="crispEdges"/><rect fill="#d87757" x="317.2" y="635.9" width="12.2" height="24.65" shape-rendering="crispEdges"/><rect fill="#0e0e0d" x="329.4" y="635.9" width="24.4" height="24.65" shape-rendering="crispEdges"/><rect fill="#0e0e0d" x="353.8" y="635.9" width="488" height="24.65" shape-rendering="crispEdges"/><rect fill="#e54c4c" x="841.8" y="635.9" width="195.2" height="24.65" shape-rendering="crispEdges"/><rect fill="#0e0e0d" x="1037" y="635.9" width="12.2" height="24.65" shape-rendering="crispEdges"/><rect fill="#0e0e0d" x="1049.2" y="635.9" width="195.2" height="24.65" shape-rendering="crispEdges"/><rect fill="#0e0e0d" x="1244.4" y="635.9" width="12.2" height="24.65" shape-rendering="crispEdges"/><rect fill="#0e0e0d" x="1256.6" y="635.9" width="24.4" height="24.65" shape-rendering="crispEdges"/><rect fill="#2d2d2b" x="1281" y="635.9" width="12.2" height="24.65" shape-rendering="crispEdges"/><rect fill="#2d2d2b" x="1293.2" y="635.9" width="317.2" height="24.65" shape-rendering="crispEdges"/><rect fill="#2d2d2b" x="0" y="660.3" width="317.2" height="24.65" shape-rendering="crispEdges"/><rect fill="#d87757" x="317.2" y="660.3" width="12.2" height="24.65" shape-rendering="crispEdges"/><rect fill="#0e0e0d" x="329.4" y="660.3" width="951.6" height="24.65" shape-rendering="crispEdges"/><rect fill="#2d2d2b" x="1281" y="660.3" width="12.2" height="24.65" shape-rendering="crispEdges"/><rect fill="#2d2d2b" x="1293.2" y="660.3" width="317.2" height="24.65" shape-rendering="crispEdges"/><rect fill="#2d2d2b" x="0" y="684.7" width="317.2" height="24.65" shape-rendering="crispEdges"/><rect fill="#d87757" x="317.2" y="684.7" width="12.2" height="24.65" shape-rendering="crispEdges"/><rect fill="#0e0e0d" x="329.4" y="684.7" width="951.6" height="24.65" shape-rendering="crispEdges"/><rect fill="#2d2d2b" x="1281" y="684.7" width="12.2" height="24.65" shape-rendering="crispEdges"/><rect fill="#2d2d2b" x="1293.2" y="684.7" width="317.2" height="24.65" shape-rendering="crispEdges"/><rect fill="#2d2d2b" x="0" y="709.1" width="1610.4" height="24.65" shape-rendering="crispEdges"/><rect fill="#2d2d2b" x="0" y="733.5" width="1610.4" height="24.65" shape-rendering="crispEdges"/><rect fill="#2d2d2b" x="0" y="757.9" width="1610.4" height="24.65" shape-rendering="crispEdges"/><rect fill="#2d2d2b" x="0" y="782.3" width="1610.4" height="24.65" shape-rendering="crispEdges"/><rect fill="#2d2d2b" x="0" y="806.7" width="1610.4" height="24.65" shape-rendering="crispEdges"/><rect fill="#2d2d2b" x="0" y="831.1" width="1610.4" height="24.65" shape-rendering="crispEdges"/><rect fill="#2d2d2b" x="0" y="855.5" width="24.4" height="24.65" shape-rendering="crispEdges"/><rect fill="#2d2d2b" x="24.4" y="855.5" width="12.2" height="24.65" shape-rendering="crispEdges"/><rect fill="#2d2d2b" x="36.6" y="855.5" width="73.2" height="24.65" shape-rendering="crispEdges"/><rect fill="#2d2d2b" x="109.8" y="855.5" width="12.2" height="24.65" shape-rendering="crispEdges"/><rect fill="#2d2d2b" x="122" y="855.5" width="12.2" height="24.65" shape-rendering="crispEdges"/><rect fill="#2d2d2b" x="134.2" y="855.5" width="97.6" height="24.65" shape-rendering="crispEdges"/><rect fill="#2d2d2b" x="231.8" y="855.5" width="85.4" height="24.65" shape-rendering="crispEdges"/><rect fill="#2d2d2b" x="317.2" y="855.5" width="1268.8" height="24.65" shape-rendering="crispEdges"/><rect fill="#2d2d2b" x="1586" y="855.5" width="24.4" height="24.65" shape-rendering="crispEdges"/>
    <g class="terminal-674134868-matrix">
    <text class="terminal-674134868-r1" x="1610.4" y="20" textLength="12.2" clip-path="url(#terminal-674134868-line-0)">
</text><text class="terminal-674134868-r1" x="1610.4" y="44.4" textLength="12.2" clip-path="url(#terminal-674134868-line-1)">
</text><text class="terminal-674134868-r1" x="1610.4" y="68.8" textLength="12.2" clip-path="url(#terminal-674134868-line-2)">
</text><text class="terminal-674134868-r1" x="1610.4" y="93.2" textLength="12.2" clip-path="url(#terminal-674134868-line-3)">
</text><text class="terminal-674134868-r1" x="1610.4" y="117.6" textLength="12.2" clip-path="url(#terminal-674134868-line-4)">
</text><text class="terminal-674134868-r2" x="317.2" y="142" textLength="12.2" clip-path="url(#terminal-674134868-line-5)">▊</text><text class="terminal-674134868-r3" x="329.4" y="142" textLength="951.6" clip-path="url(#terminal-674134868-line-5)">▔▔▔▔▔▔▔▔▔▔▔▔▔▔▔▔▔▔▔▔▔▔▔▔▔▔▔▔▔▔▔▔▔▔▔▔▔▔▔▔▔▔▔▔▔▔▔▔▔▔▔▔▔▔▔▔▔▔▔▔▔▔▔▔▔▔▔▔▔▔▔▔▔▔▔▔▔▔</text><text class="terminal-674134868-r3" x="1281" y="142" textLength="12.2" clip-path="url(#terminal-674134868-line-5)">▎</text><text class="terminal-674134868-r1" x="1610.4" y="142" textLength="12.2" clip-path="url(#terminal-674134868-line-5)">
</text><text class="terminal-674134868-r2" x="317.2" y="166.4" textLength="12.2" clip-path="url(#terminal-674134868-line-6)">▊</text><text class="terminal-674134868-r3" x="1281" y="166.4" textLength="12.2" clip-path="url(#terminal-674134868-line-6)">▎</text><text class="terminal-674134868-r1" x="1610.4" y="166.4" textLength="12.2" clip-path="url(#terminal-674134868-line-6)">
</text><text class="terminal-674134868-r2" x="317.2" y="190.8" textLength="12.2" clip-path="url(#terminal-674134868-line-7)">▊</text><text class="terminal-674134868-r4" x="353.8" y="190.8" textLength="48.8" clip-path="url(#terminal-674134868-line-7)">Kill</text><text class="terminal-674134868-r3" x="1281" y="190.8" textLength="12.2" clip-path="url(#terminal-674134868-line-7)">▎</text><text class="terminal-674134868-r1" x="1610.4" y="190.8" textLength="12.2" clip-path="url(#terminal-674134868-line-7)">
</text><text class="terminal-674134868-r2" x="317.2" y="215.2" textLength="12.2" clip-path="url(#terminal-674134868-line-8)">▊</text><text class="terminal-674134868-r3" x="1281" y="215.2" textLength="12.2" clip-path="url(#terminal-674134868-line-8)">▎</text><text class="terminal-674134868-r1" x="1610.4" y="215.2" textLength="12.2" clip-path="url(#terminal-674134868-line-8)">
</text><text class="terminal-674134868-r2" x="317.2" y="239.6" textLength="12.2" clip-path="url(#terminal-674134868-line-9)">▊</text><text class="terminal-674134868-r5" x="353.8" y="239.6" textLength="817.4" clip-path="url(#terminal-674134868-line-9)">Kill&#160;this&#160;workspace?&#160;The&#160;worktree&#160;and&#160;tmux&#160;session&#160;will&#160;be&#160;removed.</text><text class="terminal-674134868-r3" x="1281" y="239.6" textLength="12.2" clip-path="url(#terminal-674134868-line-9)">▎</text><text class="terminal-674134868-r1" x="1610.4" y="239.6" textLength="12.2" clip-path="url(#terminal-674134868-line-9)">
</text><text class="terminal-674134868-r2" x="317.2" y="264" textLength="12.2" clip-path="url(#terminal-674134868-line-10)">▊</text><text class="terminal-674134868-r3" x="1281" y="264" textLength="12.2" clip-path="url(#terminal-674134868-line-10)">▎</text><text class="terminal-674134868-r1" x="1610.4" y="264" textLength="12.2" clip-path="url(#terminal-674134868-line-10)">
</text><text class="terminal-674134868-r2" x="317.2" y="288.4" textLength="12.2" clip-path="url(#terminal-674134868-line-11)">▊</text><text class="terminal-674134868-r6" x="353.8" y="288.4" textLength="451.4" clip-path="url(#terminal-674134868-line-11)">branch&#160;(deleted):&#160;&#160;feat/auth-refactor</text><text class="terminal-674134868-r3" x="1281" y="288.4" textLength="12.2" clip-path="url(#terminal-674134868-line-11)">▎</text><text class="terminal-674134868-r1" x="1610.4" y="288.4" textLength="12.2" clip-path="url(#terminal-674134868-line-11)">
</text><text class="terminal-674134868-r2" x="317.2" y="312.8" textLength="12.2" clip-path="url(#terminal-674134868-line-12)">▊</text><text class="terminal-674134868-r6" x="353.8" y="312.8" textLength="231.8" clip-path="url(#terminal-674134868-line-12)">worktree&#160;(deleted):</text><text class="terminal-674134868-r3" x="1281" y="312.8" textLength="12.2" clip-path="url(#terminal-674134868-line-12)">▎</text><text class="terminal-674134868-r1" x="1610.4" y="312.8" textLength="12.2" clip-path="url(#terminal-674134868-line-12)">
</text><text class="terminal-674134868-r2" x="317.2" y="337.2" textLength="12.2" clip-path="url(#terminal-674134868-line-13)">▊</text><text class="terminal-674134868-r6" x="353.8" y="337.2" textLength="902.8" clip-path="url(#terminal-674134868-line-13)">/tmp/grove-screenshots/populated/myproject/.worktrees/auth-refactor-202605</text><text class="terminal-674134868-r3" x="1281" y="337.2" textLength="12.2" clip-path="url(#terminal-674134868-line-13)">▎</text><text class="terminal-674134868-r1" x="1610.4" y="337.2" textLength="12.2" clip-path="url(#terminal-674134868-line-13)">
</text><text class="terminal-674134868-r2" x="317.2" y="361.6" textLength="12.2" clip-path="url(#terminal-674134868-line-14)">▊</text><text class="terminal-674134868-r6" x="353.8" y="361.6" textLength="109.8" clip-path="url(#terminal-674134868-line-14)">07-225449</text><text class="terminal-674134868-r3" x="1281" y="361.6" textLength="12.2" clip-path="url(#terminal-674134868-line-14)">▎</text><text class="terminal-674134868-r1" x="1610.4" y="361.6" textLength="12.2" clip-path="url(#terminal-674134868-line-14)">
</text><text class="terminal-674134868-r2" x="317.2" y="386" textLength="12.2" clip-path="url(#terminal-674134868-line-15)">▊</text><text class="terminal-674134868-r6" x="353.8" y="386" textLength="292.8" clip-path="url(#terminal-674134868-line-15)">commits&#160;ahead&#160;of&#160;base:&#160;0</text><text class="terminal-674134868-r3" x="1281" y="386" textLength="12.2" clip-path="url(#terminal-674134868-line-15)">▎</text><text class="terminal-674134868-r1" x="1610.4" y="386" textLength="12.2" clip-path="url(#terminal-674134868-line-15)">
</text><text class="terminal-674134868-r2" x="317.2" y="410.4" textLength="12.2" clip-path="url(#terminal-674134868-line-16)">▊</text><text class="terminal-674134868-r6" x="353.8" y="410.4" textLength="158.6" clip-path="url(#terminal-674134868-line-16)">diff:&#160;+0&#160;/&#160;-0</text><text class="terminal-674134868-r3" x="1281" y="410.4" textLength="12.2" clip-path="url(#terminal-674134868-line-16)">▎</text><text class="terminal-674134868-r1" x="1610.4" y="410.4" textLength="12.2" clip-path="url(#terminal-674134868-line-16)">
</text><text class="terminal-674134868-r2" x="317.2" y="434.8" textLength="12.2" clip-path="url(#terminal-674134868-line-17)">▊</text><text class="terminal-674134868-r3" x="1281" y="434.8" textLength="12.2" clip-path="url(#terminal-674134868-line-17)">▎</text><text class="terminal-674134868-r1" x="1610.4" y="434.8" textLength="12.2" clip-path="url(#terminal-674134868-line-17)">
</text><text class="terminal-674134868-r2" x="317.2" y="459.2" textLength="12.2" clip-path="url(#terminal-674134868-line-18)">▊</text><text class="terminal-674134868-r7" x="353.8" y="459.2" textLength="12.2" clip-path="url(#terminal-674134868-line-18)">▊</text><text class="terminal-674134868-r8" x="366" y="459.2" textLength="573.4" clip-path="url(#terminal-674134868-line-18)">▔▔▔▔▔▔▔▔▔▔▔▔▔▔▔▔▔▔▔▔▔▔▔▔▔▔▔▔▔▔▔▔▔▔▔▔▔▔▔▔▔▔▔▔▔▔▔</text><text class="terminal-674134868-r8" x="939.4" y="459.2" textLength="12.2" clip-path="url(#terminal-674134868-line-18)">▎</text><text class="terminal-674134868-r3" x="1281" y="459.2" textLength="12.2" clip-path="url(#terminal-674134868-line-18)">▎</text><text class="terminal-674134868-r1" x="1610.4" y="459.2" textLength="12.2" clip-path="url(#terminal-674134868-line-18)">
</text><text class="terminal-674134868-r2" x="317.2" y="483.6" textLength="12.2" clip-path="url(#terminal-674134868-line-19)">▊</text><text class="terminal-674134868-r7" x="353.8" y="483.6" textLength="12.2" clip-path="url(#terminal-674134868-line-19)">▊</text><text class="terminal-674134868-r9" x="378.2" y="483.6" textLength="12.2" clip-path="url(#terminal-674134868-line-19)">▐</text><text class="terminal-674134868-r10" x="390.4" y="483.6" textLength="12.2" clip-path="url(#terminal-674134868-line-19)">X</text><text class="terminal-674134868-r9" x="402.6" y="483.6" textLength="12.2" clip-path="url(#terminal-674134868-line-19)">▌</text><text class="terminal-674134868-r11" x="414.8" y="483.6" textLength="512.4" clip-path="url(#terminal-674134868-line-19)">&#160;Delete&#160;local&#160;branch&#160;`feat/auth-refactor`&#160;</text><text class="terminal-674134868-r8" x="939.4" y="483.6" textLength="12.2" clip-path="url(#terminal-674134868-line-19)">▎</text><text class="terminal-674134868-r3" x="1281" y="483.6" textLength="12.2" clip-path="url(#terminal-674134868-line-19)">▎</text><text class="terminal-674134868-r1" x="1610.4" y="483.6" textLength="12.2" clip-path="url(#terminal-674134868-line-19)">
</text><text class="terminal-674134868-r2" x="317.2" y="508" textLength="12.2" clip-path="url(#terminal-674134868-line-20)">▊</text><text class="terminal-674134868-r7" x="353.8" y="508" textLength="12.2" clip-path="url(#terminal-674134868-line-20)">▊</text><text class="terminal-674134868-r8" x="366" y="508" textLength="573.4" clip-path="url(#terminal-674134868-line-20)">▁▁▁▁▁▁▁▁▁▁▁▁▁▁▁▁▁▁▁▁▁▁▁▁▁▁▁▁▁▁▁▁▁▁▁▁▁▁▁▁▁▁▁▁▁▁▁</text><text class="terminal-674134868-r8" x="939.4" y="508" textLength="12.2" clip-path="url(#terminal-674134868-line-20)">▎</text><text class="terminal-674134868-r3" x="1281" y="508" textLength="12.2" clip-path="url(#terminal-674134868-line-20)">▎</text><text class="terminal-674134868-r1" x="1610.4" y="508" textLength="12.2" clip-path="url(#terminal-674134868-line-20)">
</text><text class="terminal-674134868-r2" x="317.2" y="532.4" textLength="12.2" clip-path="url(#terminal-674134868-line-21)">▊</text><text class="terminal-674134868-r3" x="1281" y="532.4" textLength="12.2" clip-path="url(#terminal-674134868-line-21)">▎</text><text class="terminal-674134868-r1" x="1610.4" y="532.4" textLength="12.2" clip-path="url(#terminal-674134868-line-21)">
</text><text class="terminal-674134868-r2" x="317.2" y="556.8" textLength="12.2" clip-path="url(#terminal-674134868-line-22)">▊</text><text class="terminal-674134868-r6" x="353.8" y="556.8" textLength="524.6" clip-path="url(#terminal-674134868-line-22)">Remote&#160;branches&#160;are&#160;never&#160;touched&#160;by&#160;Grove.</text><text class="terminal-674134868-r3" x="1281" y="556.8" textLength="12.2" clip-path="url(#terminal-674134868-line-22)">▎</text><text class="terminal-674134868-r1" x="1610.4" y="556.8" textLength="12.2" clip-path="url(#terminal-674134868-line-22)">
</text><text class="terminal-674134868-r2" x="317.2" y="581.2" textLength="12.2" clip-path="url(#terminal-674134868-line-23)">▊</text><text class="terminal-674134868-r3" x="1281" y="581.2" textLength="12.2" clip-path="url(#terminal-674134868-line-23)">▎</text><text class="terminal-674134868-r1" x="1610.4" y="581.2" textLength="12.2" clip-path="url(#terminal-674134868-line-23)">
</text><text class="terminal-674134868-r2" x="317.2" y="605.6" textLength="12.2" clip-path="url(#terminal-674134868-line-24)">▊</text><text class="terminal-674134868-r12" x="841.8" y="605.6" textLength="195.2" clip-path="url(#terminal-674134868-line-24)">▔▔▔▔▔▔▔▔▔▔▔▔▔▔▔▔</text><text class="terminal-674134868-r13" x="1049.2" y="605.6" textLength="195.2" clip-path="url(#terminal-674134868-line-24)">▔▔▔▔▔▔▔▔▔▔▔▔▔▔▔▔</text><text class="terminal-674134868-r3" x="1281" y="605.6" textLength="12.2" clip-path="url(#terminal-674134868-line-24)">▎</text><text class="terminal-674134868-r1" x="1610.4" y="605.6" textLength="12.2" clip-path="url(#terminal-674134868-line-24)">
</text><text class="terminal-674134868-r2" x="317.2" y="630" textLength="12.2" clip-path="url(#terminal-674134868-line-25)">▊</text><text class="terminal-674134868-r14" x="878.4" y="630" textLength="122" clip-path="url(#terminal-674134868-line-25)">&#160;Kill&#160;(y)&#160;</text><text class="terminal-674134868-r4" x="1073.6" y="630" textLength="146.4" clip-path="url(#terminal-674134868-line-25)">&#160;Cancel&#160;(n)&#160;</text><text class="terminal-674134868-r3" x="1281" y="630" textLength="12.2" clip-path="url(#terminal-674134868-line-25)">▎</text><text class="terminal-674134868-r1" x="1610.4" y="630" textLength="12.2" clip-path="url(#terminal-674134868-line-25)">
</text><text class="terminal-674134868-r2" x="317.2" y="654.4" textLength="12.2" clip-path="url(#terminal-674134868-line-26)">▊</text><text class="terminal-674134868-r15" x="841.8" y="654.4" textLength="195.2" clip-path="url(#terminal-674134868-line-26)">▁▁▁▁▁▁▁▁▁▁▁▁▁▁▁▁</text><text class="terminal-674134868-r16" x="1049.2" y="654.4" textLength="195.2" clip-path="url(#terminal-674134868-line-26)">▁▁▁▁▁▁▁▁▁▁▁▁▁▁▁▁</text><text class="terminal-674134868-r3" x="1281" y="654.4" textLength="12.2" clip-path="url(#terminal-674134868-line-26)">▎</text><text class="terminal-674134868-r1" x="1610.4" y="654.4" textLength="12.2" clip-path="url(#terminal-674134868-line-26)">
</text><text class="terminal-674134868-r2" x="317.2" y="678.8" textLength="12.2" clip-path="url(#terminal-674134868-line-27)">▊</text><text class="terminal-674134868-r3" x="1281" y="678.8" textLength="12.2" clip-path="url(#terminal-674134868-line-27)">▎</text><text class="terminal-674134868-r1" x="1610.4" y="678.8" textLength="12.2" clip-path="url(#terminal-674134868-line-27)">
</text><text class="terminal-674134868-r2" x="317.2" y="703.2" textLength="12.2" clip-path="url(#terminal-674134868-line-28)">▊</text><text class="terminal-674134868-r3" x="329.4" y="703.2" textLength="951.6" clip-path="url(#terminal-674134868-line-28)">▁▁▁▁▁▁▁▁▁▁▁▁▁▁▁▁▁▁▁▁▁▁▁▁▁▁▁▁▁▁▁▁▁▁▁▁▁▁▁▁▁▁▁▁▁▁▁▁▁▁▁▁▁▁▁▁▁▁▁▁▁▁▁▁▁▁▁▁▁▁▁▁▁▁▁▁▁▁</text><text class="terminal-674134868-r3" x="1281" y="703.2" textLength="12.2" clip-path="url(#terminal-674134868-line-28)">▎</text><text class="terminal-674134868-r1" x="1610.4" y="703.2" textLength="12.2" clip-path="url(#terminal-674134868-line-28)">
</text><text class="terminal-674134868-r1" x="1610.4" y="727.6" textLength="12.2" clip-path="url(#terminal-674134868-line-29)">
</text><text class="terminal-674134868-r1" x="1610.4" y="752" textLength="12.2" clip-path="url(#terminal-674134868-line-30)">
</text><text class="terminal-674134868-r1" x="1610.4" y="776.4" textLength="12.2" clip-path="url(#terminal-674134868-line-31)">
</text><text class="terminal-674134868-r1" x="1610.4" y="800.8" textLength="12.2" clip-path="url(#terminal-674134868-line-32)">
</text><text class="terminal-674134868-r1" x="1610.4" y="825.2" textLength="12.2" clip-path="url(#terminal-674134868-line-33)">
</text><text class="terminal-674134868-r1" x="1610.4" y="849.6" textLength="12.2" clip-path="url(#terminal-674134868-line-34)">
</text><text class="terminal-674134868-r17" x="24.4" y="874" textLength="12.2" clip-path="url(#terminal-674134868-line-35)">y</text><text class="terminal-674134868-r18" x="36.6" y="874" textLength="73.2" clip-path="url(#terminal-674134868-line-35)">&#160;Kill&#160;</text><text class="terminal-674134868-r19" x="109.8" y="874" textLength="12.2" clip-path="url(#terminal-674134868-line-35)">·</text><text class="terminal-674134868-r17" x="134.2" y="874" textLength="97.6" clip-path="url(#terminal-674134868-line-35)">n/escape</text><text class="terminal-674134868-r18" x="231.8" y="874" textLength="85.4" clip-path="url(#terminal-674134868-line-35)">&#160;Cancel</text>
    </g>
    </g>
</svg>
